<svg width="172" height="172" viewBox="0 0 172 172" fill="none" xmlns="http://www.w3.org/2000/svg">
<g clip-path="url(#clip0_466_135)">
<path d="M32.677 38.4448L73.1792 55.9703C73.1792 55.9703 78.7154 53.5249 84.106 51.2153C84.106 51.2153 85.1258 50.6719 85.1258 49.5851C85.1258 49.5851 85.1258 48.3623 83.8146 47.8189C83.8146 47.8189 65.6032 39.9392 47.3918 32.1954L80.0266 18.2021L82.7948 17.6587L85.4172 18.2021L134.369 39.2599C134.369 39.2599 139.323 41.4336 139.323 44.2866C139.323 44.2866 139.323 47.1396 134.369 49.1775L96.0527 65.6162L134.369 82.0549C134.369 82.0549 139.323 84.0927 139.323 87.2174C139.323 87.2174 139.323 89.9346 134.369 92.2441L85.4172 113.03C85.4172 113.03 84.3974 113.845 82.7948 113.845L80.0266 113.03L47.3918 99.1728L83.8146 83.6851L85.1258 81.919C85.1258 81.919 85.1258 81.1039 84.106 80.1529L73.1792 75.5337L32.677 93.0593V73.2242L50.3056 65.6162L32.677 58.2799V38.4448" fill="#9A9A9A"/>
<path d="M100.133 130.329V147.605C100.133 147.605 100.133 154.654 93.2703 154.723H82.1033C82.1033 154.723 80.5911 154.654 79.9514 153.272L77.9739 149.54H90.5949C90.5949 149.54 93.3866 149.471 93.3866 146.914V130.329H100.133" fill="#9A9A9A"/>
<path d="M100.133 130.329V147.605C100.133 147.605 100.133 154.654 93.2703 154.723H82.1033C82.1033 154.723 80.5911 154.654 79.9514 153.272L77.9739 149.54H90.5949C90.5949 149.54 93.3866 149.471 93.3866 146.914V130.329H100.133" stroke="#9A9A9A" stroke-width="1.11481" stroke-linecap="round" stroke-linejoin="round"/>
<path d="M65.7018 130.329L78.381 154.723H70.4711L68.3191 150.3H56.6868L58.548 146.569C58.548 146.569 59.2459 145.118 60.7 145.118H65.8182L61.3397 136.134L52.3247 154.723H44.4148L57.094 130.329H65.7018" fill="#9A9A9A"/>
<path d="M65.7018 130.329L78.381 154.723H70.4711L68.3191 150.3H56.6868L58.548 146.569C58.548 146.569 59.2459 145.118 60.7 145.118H65.8182L61.3397 136.134L52.3247 154.723H44.4148L57.094 130.329H65.7018" stroke="#9A9A9A" stroke-width="1.11481" stroke-linecap="round" stroke-linejoin="round"/>
<path d="M120.781 130.329L133.343 154.723H125.55L123.34 150.3H111.649L113.569 146.569C113.569 146.569 114.325 145.118 115.779 145.118H120.897L116.418 136.134L107.287 154.723H99.3772L112.056 130.329H120.781" fill="#9A9A9A"/>
<path d="M120.781 130.329L133.343 154.723H125.55L123.34 150.3H111.649L113.569 146.569C113.569 146.569 114.325 145.118 115.779 145.118H120.897L116.418 136.134L107.287 154.723H99.3772L112.056 130.329H120.781" stroke="#9A9A9A" stroke-width="1.11481" stroke-linecap="round" stroke-linejoin="round"/>
<path d="M155.096 130.329V147.605C155.096 147.605 155.038 154.654 148.349 154.723H137.066C137.066 154.723 135.495 154.654 134.856 153.272L132.936 149.54H145.615C145.615 149.54 148.465 149.471 148.465 146.914V130.329H155.096" fill="#9A9A9A"/>
<path d="M155.096 130.329V147.605C155.096 147.605 155.038 154.654 148.349 154.723H137.066C137.066 154.723 135.495 154.654 134.856 153.272L132.936 149.54H145.615C145.615 149.54 148.465 149.471 148.465 146.914V130.329H155.096" stroke="#9A9A9A" stroke-width="1.11481" stroke-linecap="round" stroke-linejoin="round"/>
<path d="M16.9043 130.328V154.722H23.6507V144.357V135.305H35.2834C37.668 135.305 37.6686 137.377 37.6686 137.377C37.6686 139.312 35.2834 139.313 35.2834 139.313H27.7804C26.3846 139.313 25.6284 140.626 25.6284 140.626L23.6507 144.357H35.1676C37.6686 144.357 37.6686 146.914 37.6686 146.914C37.6686 149.471 35.1676 149.541 35.1676 149.541H27.7804C26.3846 149.471 25.6284 150.922 25.6284 150.922L23.6507 154.722H35.2834C45.1708 154.653 45.1715 148.09 45.1715 148.09C45.1715 143.805 40.5185 142.284 40.5185 142.284C45.1714 140.902 45.1715 136.618 45.1715 136.618C45.1715 130.26 35.2834 130.328 35.2834 130.328H16.9043H16.9043Z" fill="#9A9A9A" stroke="#9A9A9A" stroke-width="1.11481" stroke-linecap="round" stroke-linejoin="round"/>
</g>
<defs>
<clipPath id="clip0_466_135">
<rect width="172" height="172" fill="white"/>
</clipPath>
</defs>
</svg>
