<svg width="304" height="123" viewBox="0 0 304 123" fill="none" xmlns="http://www.w3.org/2000/svg">
<g clip-path="url(#clip0_466_146)">
<path fill-rule="evenodd" clip-rule="evenodd" d="M2.6474 14.4085L2.64502 14.263V2.62175H14.1295V88.0053L14.1342 88.2715V99.792H2.64502V88.1507L2.6474 88.0053V14.4085Z" fill="#9A9A9A"/>
<path fill-rule="evenodd" clip-rule="evenodd" d="M119.424 64.4046C119.719 82.065 130.521 96.1883 143.553 95.9517C156.582 95.7151 166.904 81.2072 166.609 63.5468C166.312 45.884 155.51 31.7606 142.478 31.9997C129.449 32.2363 119.127 46.7442 119.424 64.4046ZM214.514 43.0519C214.813 43.7248 214.102 42.0463 214.102 42.0463L214.514 43.0519ZM222.341 116.166C222.867 115.254 223.6 113.859 224.473 112.116L222.341 116.166ZM223.015 36.9589C223.154 37.3508 223.315 37.76 223.496 38.1913L227.363 47.8263L223.015 36.9589ZM174.894 85.4615C181.993 92.0179 188.384 95.407 196.557 95.407C204.923 95.4711 212.36 91.308 212.36 83.2949C212.36 76.6079 206.533 72.6962 196.123 68.2176C187.302 64.3331 180.738 61.6095 177.307 55.9872C177.726 58.4299 177.945 60.9538 177.945 63.537C177.945 85.2248 162.486 102.809 143.416 102.809C124.346 102.809 108.888 85.2248 108.888 63.537C108.888 50.4611 114.507 38.879 123.145 31.7409H99.779V88.0051L99.7814 88.2294V99.7919H89.4033V88.6066C89.4106 88.4094 89.413 88.2097 89.413 88.0051V31.7409H80.2629V24.6595H89.547C90.7459 10.3734 99.4427 2.29378 111.483 2.29378C119.29 2.29378 123.576 3.12197 126.052 4.28783V13.9721C126.013 14.6943 126.013 15.1355 126.013 15.1355C125.906 15.1231 125.65 15.1182 125.65 15.1182C121.893 11.5911 118.186 8.96602 109.528 8.97588C102.632 8.97588 98.0708 14.677 99.6645 24.6595H138.506C140.112 24.4007 141.75 24.2651 143.416 24.2651C157.25 24.2651 169.185 33.518 174.695 46.8822C174.644 46.1403 174.619 45.3664 174.619 44.5579C174.619 30.6145 187.882 24.6841 201.66 24.7137C202.186 24.7113 202.703 24.7137 203.21 24.726C208.059 24.6472 214.967 26.2567 219.185 27.3856L227.363 47.8263L239.049 76.8321L240.421 81.4906L241.949 76.8321L256.728 39.6012C259.455 29.35 270.247 24.9133 282.168 24.938C288.094 24.9109 292.47 25.638 297.719 27.5162V38.7755C291.257 33.9962 286.629 31.2183 279.297 31.2183C272.852 31.2183 265.106 34.1219 265.106 43.7741C264.981 51.0281 269.258 52.3541 281.807 58.6911C292.122 63.2486 301.638 68.2793 301.694 79.9304C301.694 99.3556 282.887 102.72 273.732 102.75C265.559 102.75 258.068 100.696 253.901 97.1693V84.3449L254.572 84.9093C262.006 91.9735 268.576 95.6337 277.065 95.6337C285.433 95.6978 292.868 91.5323 292.868 83.5192C292.868 76.8322 287.041 72.9205 276.631 68.4419C266.682 64.0595 260.154 61.156 257.486 53.8971C253.429 63.9658 234.556 110.736 230.114 120.733H219.938L224.543 111.983C227.095 106.871 230.806 98.8503 234.103 91.1774L214.514 43.0519C214.382 42.7586 214.06 42.0191 213.405 40.5033C211.902 37.018 210.503 33.799 206.273 32.1772C204.006 31.4008 201.594 30.994 198.789 30.994C192.344 30.994 184.101 33.8976 184.101 43.5498C183.976 50.8038 188.747 52.1298 201.299 58.4644C211.614 63.0243 221.129 68.0549 221.186 79.7061C221.186 99.1313 202.376 102.493 193.221 102.525C185.955 102.525 179.225 100.901 174.894 98.0616V85.4615Z" fill="#9A9A9A"/>
<path fill-rule="evenodd" clip-rule="evenodd" d="M35.5609 25.3842L35.6876 33.8829L35.6803 34.4547L35.7923 34.4522C35.9263 34.0973 36.1067 33.7966 36.2773 33.5723C40.4953 28.9705 45.8123 24.3983 58.4494 24.3983C70.5454 24.3983 78.3747 34.8565 78.689 41.44L78.7012 88.0052V88.2369V99.7919H68.3353V85.9076L68.3328 46.266C68.3328 38.0582 61.254 32.123 52.5889 32.123C45.3858 32.123 36.1408 38.7188 35.8338 45.396V88.0175L35.8387 88.3305V99.8018H25.4678V35.1695L25.4703 25.3842H35.5609Z" fill="#9A9A9A"/>
</g>
<defs>
<clipPath id="clip0_466_146">
<rect width="304" height="123" fill="white"/>
</clipPath>
</defs>
</svg>
