<svg width="147" height="161" viewBox="0 0 147 161" fill="none" xmlns="http://www.w3.org/2000/svg">
<path fill-rule="evenodd" clip-rule="evenodd" d="M63.4207 138.819L94.5611 88.2468H73.5476L84.0543 71.3105H133.423L122.917 88.3653H105.068L73.5476 139.648C108.612 139.648 137.474 112.763 137.474 79.8379C137.474 47.1495 108.739 20.2645 73.5476 20.2645C71.0159 20.2645 68.3576 20.3829 66.079 20.7382L34.6854 71.5473H73.5476L62.9143 88.2468H13.5454L53.8001 23.1069C28.2295 30.8053 9.74781 53.4266 9.74781 79.7194C9.74781 109.447 33.0398 134.2 63.4207 138.819ZM73.5476 11.6187C113.676 11.6187 146.462 42.2936 146.462 79.8379C146.462 117.501 113.549 148.176 73.5476 148.176C33.293 148.176 0.633545 117.501 0.633545 79.8379C0.633545 42.1752 33.293 11.6187 73.5476 11.6187Z" fill="#9A9A9A"/>
</svg>
