<svg width="387" height="94" viewBox="0 0 387 94" fill="none" xmlns="http://www.w3.org/2000/svg">
<path fill-rule="evenodd" clip-rule="evenodd" d="M2.63904 91.2911V70.55H19.6373L37.3261 23.7444H14.0315L13.7877 2.70898L78.7578 3.00333L89.9673 38.6446L100.6 2.70898H233.005C245.658 3.00333 254.85 4.09909 259.701 9.14068C273.298 22.4254 267.947 54.3434 249.251 56.1702L262.597 70.55H289.039L289.546 23.7444H273.047V2.70898H384.361V38.8559H359.116V23.7444H316.68L316.933 34.9213H349.672V55.6519L316.68 55.3673V70.55H334.623V91.2911H243.709L211.407 56.1702H196.683V70.55H209.964V91.2911H115.65V70.55H126.798L116.157 45.2877L100.356 91.2911H75.8638L60.6208 44.7799L50.6802 70.55H60.1221V91.2911H2.63904ZM196.683 23.7444V34.9213H234.264C240.561 34.627 240.561 23.7444 234.264 23.7444H196.683ZM160.288 70.2557L139.39 23.7444H169.225L169.479 70.2557" fill="#9A9A9A"/>
</svg>
