<svg width="687" height="94" viewBox="0 0 687 94" fill="none" xmlns="http://www.w3.org/2000/svg">
<g clip-path="url(#clip0_466_164)">
<path fill-rule="evenodd" clip-rule="evenodd" d="M4.04114 91.567V2.10107H28.1427L62.7675 48.1058C63.4464 49.1011 64.578 50.9811 66.049 53.7458C67.6331 56.6211 69.3304 60.0493 71.1408 63.9199C70.5751 60.1599 70.2356 56.9528 70.0093 53.967C69.783 51.0917 69.6699 48.5481 69.6699 46.3364V2.10107H93.6583V91.567H69.6699L35.045 45.4517C34.3661 44.4564 33.2346 42.5764 31.6505 39.7011C30.1795 36.9364 28.4822 33.6187 26.6717 29.7481C27.2375 33.5081 27.577 36.8258 27.8033 39.7011C28.0296 42.5764 28.1427 45.1199 28.1427 47.4423V91.567H4.04114Z" fill="#9A9A9A"/>
<path fill-rule="evenodd" clip-rule="evenodd" d="M102.597 91.567L134.167 2.10107H165.51L197.193 91.567H172.3L167.66 75.5317H132.243L127.378 91.567H102.597V91.567ZM137.562 58.1693H162.455L153.064 28.6423C152.837 27.7575 152.385 26.3199 151.932 24.3293C151.366 22.3387 150.8 19.7952 150.008 16.5881C149.443 18.7999 148.877 20.9011 148.424 22.8917C147.858 24.8823 147.293 26.7623 146.84 28.6423L137.562 58.1693V58.1693Z" fill="#9A9A9A"/>
<path fill-rule="evenodd" clip-rule="evenodd" d="M210.093 62.7035C213.827 66.7953 217.448 69.8918 221.068 71.8824C224.689 73.9835 228.31 74.9788 231.818 74.9788C235.213 74.9788 237.928 74.0941 240.078 72.3247C242.228 70.5553 243.36 68.3435 243.36 65.6894C243.36 62.7035 242.341 60.3812 240.531 58.8329C238.72 57.1741 234.421 55.5153 227.971 53.8565C218.919 51.4235 212.582 48.3271 208.848 44.5671C205.114 40.8071 203.303 35.6094 203.303 29.0847C203.303 20.4588 206.245 13.4918 212.129 8.07294C218.013 2.65412 225.595 0 234.873 0C239.965 0 244.831 0.66353 249.357 1.99059C253.883 3.31765 258.069 5.30824 262.143 7.96235L254.335 25.5459C251.507 23.2235 248.565 21.3435 245.623 20.1271C242.568 19.0212 239.626 18.3576 236.797 18.3576C233.742 18.3576 231.252 19.1318 229.442 20.4588C227.518 21.8965 226.613 23.6659 226.613 25.8776C226.613 28.2 227.405 29.9694 229.102 31.2965C230.686 32.6235 233.968 33.9506 238.607 35.1671L239.739 35.4988C249.922 38.1529 256.712 41.1388 259.88 44.3459C262.03 46.4471 263.727 49.1012 264.746 52.1976C265.877 55.2941 266.443 58.7224 266.443 62.4824C266.443 71.8824 263.275 79.5129 256.938 85.2635C250.488 91.1247 242.002 94 231.365 94C225.029 94 219.145 92.8941 213.94 90.7929C208.735 88.6918 203.643 85.3741 198.777 80.84L210.093 62.7035V62.7035Z" fill="#9A9A9A"/>
<path fill-rule="evenodd" clip-rule="evenodd" d="M284.547 62.7035C288.281 66.7953 292.015 69.8918 295.636 71.8824C299.257 73.9835 302.765 74.9788 306.386 74.9788C309.78 74.9788 312.496 74.0941 314.646 72.3247C316.796 70.5553 317.814 68.3435 317.814 65.6894C317.814 62.7035 316.909 60.3812 315.099 58.8329C313.175 57.1741 308.988 55.5153 302.425 53.8565C293.486 51.4235 287.15 48.3271 283.416 44.5671C279.682 40.8071 277.871 35.6094 277.871 29.0847C277.871 20.4588 280.813 13.4918 286.584 8.07294C292.468 2.65412 300.162 0 309.441 0C314.533 0 319.285 0.66353 323.811 1.99059C328.337 3.31765 332.637 5.30824 336.711 7.96235L328.903 25.5459C326.074 23.2235 323.132 21.3435 320.19 20.1271C317.135 19.0212 314.193 18.3576 311.251 18.3576C308.309 18.3576 305.82 19.1318 303.896 20.4588C302.086 21.8965 301.181 23.6659 301.181 25.8776C301.181 28.2 301.973 29.9694 303.67 31.2965C305.254 32.6235 308.422 33.9506 313.175 35.1671L314.306 35.4988C324.49 38.1529 331.166 41.1388 334.335 44.3459C336.598 46.4471 338.182 49.1012 339.313 52.1976C340.445 55.2941 341.011 58.7224 341.011 62.4824C341.011 71.8824 337.842 79.5129 331.506 85.2635C325.056 91.1247 316.57 94 305.933 94C299.483 94 293.713 92.8941 288.508 90.7929C283.189 88.6918 278.211 85.3741 273.345 80.84L284.547 62.7035V62.7035Z" fill="#9A9A9A"/>
<path fill-rule="evenodd" clip-rule="evenodd" d="M421.462 5.64V32.2918C418.068 28.5318 414.673 25.8776 411.279 24.1082C407.884 22.3388 404.263 21.4541 400.303 21.4541C393.174 21.4541 387.29 23.8871 382.877 28.6423C378.464 33.5082 376.201 39.7012 376.201 47.4423C376.201 54.52 378.464 60.4918 382.99 65.2471C387.516 70.0023 393.287 72.3247 400.303 72.3247C404.263 72.3247 407.884 71.44 411.279 69.6706C414.673 68.0118 418.068 65.2471 421.462 61.4871V88.2494C417.502 90.1294 413.655 91.4565 409.694 92.4518C405.734 93.3365 401.774 93.8894 397.813 93.8894C392.721 93.8894 388.195 93.2259 383.896 92.12C379.709 90.9035 375.749 89.1341 372.241 86.8118C365.338 82.2776 360.133 76.7482 356.513 69.8918C353.005 63.0353 351.194 55.4047 351.194 46.8894C351.194 40.0329 352.326 33.84 354.589 28.2C356.852 22.6706 360.36 17.5835 364.886 13.0494C369.186 8.62588 374.164 5.41882 379.596 3.20706C385.027 1.10588 391.137 0 397.813 0C401.774 0 405.734 0.442353 409.694 1.43765C413.655 2.32235 417.502 3.76 421.462 5.64V5.64Z" fill="#9A9A9A"/>
<path fill-rule="evenodd" clip-rule="evenodd" d="M480.755 73.3198C487.657 73.3198 493.428 70.7762 497.954 65.9103C502.48 60.9339 504.743 54.6303 504.743 46.9998C504.743 39.5903 502.48 33.2868 497.841 28.3104C493.314 23.2233 487.544 20.7904 480.755 20.7904C473.852 20.7904 468.081 23.2233 463.555 28.1998C459.029 33.2868 456.766 39.4798 456.766 46.9998C456.766 54.7409 459.029 61.0445 463.442 65.9103C467.968 70.8868 473.739 73.3198 480.755 73.3198V73.3198ZM529.75 46.9998C529.75 53.5245 528.505 59.4962 526.129 65.1362C523.753 70.7762 520.245 75.7527 515.606 80.1762C510.853 84.5998 505.535 88.028 499.538 90.3504C493.541 92.7833 487.317 93.9998 480.755 93.9998C474.192 93.9998 467.968 92.7833 461.971 90.3504C455.974 88.028 450.656 84.5998 446.13 80.1762C441.377 75.7527 437.87 70.7762 435.38 65.0256C432.891 59.3856 431.759 53.4139 431.759 46.9998C431.759 40.5856 432.891 34.6139 435.38 28.9739C437.87 23.3339 441.377 18.3574 446.13 13.8233C450.656 9.51035 455.974 6.08212 461.971 3.64918C467.968 1.32682 474.192 0.110352 480.755 0.110352C487.317 0.110352 493.541 1.32682 499.651 3.64918C505.648 6.08212 510.966 9.51035 515.606 13.8233C520.132 18.2468 523.639 23.3339 526.129 28.9739C528.505 34.6139 529.75 40.5856 529.75 46.9998Z" fill="#9A9A9A"/>
<path fill-rule="evenodd" clip-rule="evenodd" d="M650.597 91.567H627.288L621.856 52.9717C621.517 50.207 621.177 47.1105 620.838 43.7928C620.498 40.4752 620.272 36.8258 620.046 32.8446C619.367 36.6046 618.235 41.3599 616.538 46.9999C616.199 48.2164 615.859 49.1011 615.746 49.654L603.299 91.567H586.666L574.106 49.654C573.992 49.1011 573.653 48.2164 573.427 46.9999C571.616 41.3599 570.485 36.7152 569.919 32.9552C569.693 36.2728 569.353 39.7011 569.014 43.0187C568.674 46.3364 568.335 49.654 567.882 52.9717L562.451 91.567H539.254L553.399 2.10107H578.179L591.984 48.2164C592.097 48.5481 592.21 49.1011 592.549 49.8752C593.794 53.967 594.586 57.5058 594.926 60.3811C595.152 58.8328 595.378 57.0634 595.831 55.1834C596.397 53.1928 596.962 50.8705 597.755 48.1058L611.786 2.10107H636.566L650.597 91.567V91.567Z" fill="#9A9A9A"/>
<path fill-rule="evenodd" clip-rule="evenodd" d="M661.799 15.4824H665.307C667.004 15.4824 668.136 15.2612 668.815 14.7082C669.38 14.2659 669.72 13.6024 669.72 12.8282C669.72 12.2753 669.607 11.8329 669.267 11.3906C668.928 10.9482 668.588 10.6165 668.023 10.5059C667.457 10.2847 666.552 10.1741 665.081 10.1741H661.799V15.4824V15.4824ZM658.857 25.4353V7.85176H665.081C667.231 7.85176 668.702 7.96235 669.72 8.29412C670.625 8.62588 671.304 9.17882 671.983 9.95294C672.549 10.8376 672.775 11.6118 672.775 12.6071C672.775 13.8235 672.322 14.9294 671.304 15.9247C670.399 16.92 669.154 17.3624 667.683 17.4729C668.249 17.8047 668.815 18.1365 669.154 18.4682C669.833 19.1318 670.738 20.3482 671.757 21.8965L674.02 25.4353H670.512L668.815 22.56C667.57 20.4588 666.665 19.0212 665.873 18.4682C665.307 18.1365 664.515 17.9153 663.497 17.9153H661.799V25.4353H658.857ZM666.212 2.76471C668.588 2.76471 670.851 3.31765 673.115 4.53412C675.264 5.64 677.075 7.29882 678.32 9.51059C679.564 11.7224 680.243 14.0447 680.243 16.3671C680.243 18.6894 679.564 20.9012 678.32 23.1129C677.075 25.3247 675.378 26.9835 673.228 28.2C670.965 29.4165 668.702 29.9694 666.212 29.9694C663.836 29.9694 661.573 29.4165 659.31 28.2C657.047 26.9835 655.35 25.3247 654.105 23.1129C652.86 20.9012 652.294 18.6894 652.294 16.3671C652.294 14.0447 652.86 11.7224 654.218 9.51059C655.463 7.29882 657.16 5.64 659.423 4.53412C661.573 3.31765 663.949 2.76471 666.212 2.76471V2.76471ZM666.212 0C669.041 0 671.757 0.663529 674.472 2.10118C677.075 3.53882 679.225 5.52941 680.696 8.18353C682.167 10.7271 682.959 13.4918 682.959 16.3671C682.959 19.1318 682.167 21.8965 680.696 24.44C679.225 27.0941 677.188 29.0847 674.585 30.5223C671.87 31.96 669.154 32.7341 666.212 32.7341C663.383 32.7341 660.555 31.96 657.952 30.5223C655.236 29.0847 653.2 27.0941 651.729 24.44C650.258 21.8965 649.466 19.1318 649.466 16.3671C649.466 13.4918 650.258 10.7271 651.729 8.18353C653.2 5.52941 655.35 3.53882 658.065 2.10118C660.668 0.663529 663.383 0 666.212 0V0Z" fill="#9A9A9A"/>
</g>
<defs>
<clipPath id="clip0_466_164">
<rect width="687" height="94" fill="white"/>
</clipPath>
</defs>
</svg>
