<svg width="459" height="185" viewBox="0 0 459 185" fill="none" xmlns="http://www.w3.org/2000/svg">
<g opacity="0.9">
<path d="M234.377 84.0717H242.367V69.7743H248.035V63.9956H228.708V69.7743H234.377V84.0717Z" fill="#9A9A9A"/>
<path d="M253.927 84.0717L257.999 72.0659L262.066 84.0717H269.882L262.221 63.9956H253.772L246.117 84.0717H253.927Z" fill="#9A9A9A"/>
<path d="M273.632 84.0717H281.622V69.7743H287.29V63.9956H267.964V69.7743H273.632V84.0717Z" fill="#9A9A9A"/>
<path d="M293.182 84.0717L297.255 72.0659L301.321 84.0717H309.138L301.483 63.9956H293.027L285.372 84.0717H293.182Z" fill="#9A9A9A"/>
<path d="M369.861 98.4251C370.848 100.698 372.152 103.158 373.449 105.35L378.677 114.18H382.464V94.1035H379.08V101.109C379.08 104.179 379.149 106.763 379.409 109.428L379.341 109.447C378.416 107.268 377.255 104.932 375.933 102.722L370.761 94.1035H366.583V114.18H369.96V107C369.96 103.706 369.911 101.053 369.768 98.4438L369.861 98.4251Z" fill="#9A9A9A"/>
<path d="M351.714 108.507H358.071L359.884 114.18H363.808L357.308 94.1035H352.658L346.232 114.18H350.013L351.714 108.507ZM353.856 100.779C354.21 99.5833 354.514 98.1947 354.806 97.0178H354.868C355.172 98.1823 355.501 99.5522 355.88 100.791L357.457 105.742H352.298L353.856 100.779Z" fill="#9A9A9A"/>
<path d="M292.127 111.458C290.264 111.458 288.47 110.861 287.29 110.176L286.477 113.214C287.57 113.887 289.767 114.497 291.885 114.497C297.05 114.497 299.477 111.695 299.477 108.463C299.477 105.58 297.807 103.824 294.331 102.498C291.661 101.476 290.5 100.748 290.5 99.2097C290.5 98.0265 291.487 96.7936 293.809 96.7936C295.69 96.7936 297.087 97.3665 297.807 97.7463L298.683 94.7884C297.64 94.2591 296.05 93.7983 293.884 93.7983C289.544 93.7983 286.8 96.2767 286.8 99.5646C286.8 102.442 288.911 104.222 292.22 105.399C294.747 106.321 295.765 107.218 295.765 108.731C295.765 110.362 294.455 111.458 292.127 111.458Z" fill="#9A9A9A"/>
<path d="M239.58 96.8184C241.212 96.8184 242.547 97.1795 243.478 97.603L244.273 94.6825C243.528 94.2777 241.833 93.792 239.424 93.792C233.309 93.792 228.709 97.7773 228.709 104.378C228.709 110.487 232.577 114.497 238.928 114.497C241.349 114.497 243.255 114.018 244.118 113.582L243.516 110.692C242.553 111.128 241.007 111.421 239.524 111.421C235.122 111.421 232.558 108.619 232.558 104.191C232.558 99.3715 235.494 96.8184 239.58 96.8184Z" fill="#9A9A9A"/>
<path d="M341.774 114.18V97.1859H347.542V94.1035H332.4V97.1859H338.118V114.18H341.774Z" fill="#9A9A9A"/>
<path d="M414.847 94.1035L412.438 99.2471C411.755 100.704 411.202 101.95 410.706 103.232H410.644C410.097 101.875 409.576 100.729 408.899 99.2533L406.515 94.1035H402.331L408.663 105.823V114.18H412.32V105.723L418.969 94.1097H414.847V94.1035Z" fill="#9A9A9A"/>
<path d="M254.871 93.7798C249.221 93.7798 245.341 98.1325 245.341 104.297C245.341 110.176 248.917 114.516 254.579 114.516H254.61C260.092 114.516 264.158 110.668 264.158 103.942C264.146 98.201 260.706 93.7798 254.871 93.7798ZM254.728 111.577H254.697C251.201 111.577 249.159 108.202 249.171 104.21C249.165 100.206 251.09 96.7127 254.74 96.7127C258.391 96.7127 260.266 100.293 260.266 104.079C260.259 108.276 258.26 111.577 254.728 111.577Z" fill="#9A9A9A"/>
<path d="M396.482 96.8184C398.115 96.8184 399.45 97.1795 400.381 97.603L401.176 94.6825C400.431 94.2777 398.736 93.792 396.327 93.792C390.212 93.792 385.612 97.7773 385.612 104.378C385.612 110.487 389.479 114.497 395.83 114.497C398.252 114.497 400.158 114.024 401.021 113.582L400.418 110.692C399.456 111.128 397.91 111.421 396.426 111.421C392.025 111.421 389.461 108.619 389.461 104.191C389.461 99.3715 392.397 96.8184 396.482 96.8184Z" fill="#9A9A9A"/>
<path d="M326.198 94.1035H322.541V114.18H334.43V111.103H326.198V94.1035Z" fill="#9A9A9A"/>
<path d="M318.382 105.574V94.1099H314.725V105.817C314.725 109.752 313.142 111.564 310.509 111.564C308.032 111.564 306.406 109.74 306.406 105.817V94.1099H302.749V105.599C302.749 111.913 305.76 114.522 310.373 114.522C315.209 114.516 318.382 111.757 318.382 105.574Z" fill="#9A9A9A"/>
<path d="M283.162 94.1035H279.778V101.109C279.778 104.179 279.847 106.763 280.107 109.428L280.039 109.447C279.114 107.268 277.953 104.932 276.631 102.722L271.459 94.1035H267.281V114.18H270.665V107C270.665 103.706 270.615 101.053 270.472 98.45L270.565 98.4313C271.552 100.704 272.856 103.164 274.154 105.356L279.381 114.186H283.168V94.1035H283.162Z" fill="#9A9A9A"/>
<path d="M298.807 124.218H295.15V144.294H298.807V124.218Z" fill="#9A9A9A"/>
<path d="M270.013 134.879V134.798C271.881 134.131 273.62 132.388 273.62 129.822C273.62 128.116 272.999 126.734 271.912 125.824C270.571 124.703 268.262 124.218 265.785 124.218C263.308 124.218 261.669 124.392 260.284 124.647V144.294H263.885V136.105H265.71C267.771 136.155 268.715 136.996 269.286 139.592C269.839 142.071 270.317 143.715 270.621 144.294H274.346C273.949 143.515 273.409 141.23 272.782 138.739C272.285 136.803 271.453 135.427 270.013 134.879ZM266.033 133.434H263.885V127.138C264.251 127.045 264.99 126.958 266.139 126.958C268.485 126.964 270.006 127.979 270.006 130.152C270.006 132.132 268.492 133.434 266.033 133.434Z" fill="#9A9A9A"/>
<path d="M286.185 133.396C285.409 135.831 284.683 138.285 284.149 140.651H284.087C283.565 138.222 282.882 135.875 282.125 133.34L279.393 124.211H275.407L281.883 144.287H286.073L292.989 124.211H289.097L286.185 133.396Z" fill="#9A9A9A"/>
<path d="M324.106 135.383H331.649V132.394H324.106V127.232H332.096V124.218H320.449V144.288H332.537V141.274H324.106V135.383Z" fill="#9A9A9A"/>
<path d="M312.819 126.926C314.452 126.926 315.787 127.287 316.718 127.711L317.513 124.79C316.768 124.386 315.073 123.9 312.664 123.9C306.549 123.9 301.948 127.885 301.948 134.486C301.948 140.595 305.816 144.605 312.167 144.605C314.588 144.605 316.494 144.132 317.357 143.69L316.755 140.8C315.787 141.236 314.247 141.529 312.763 141.529C308.361 141.529 305.797 138.727 305.797 134.299C305.797 129.479 308.734 126.926 312.819 126.926Z" fill="#9A9A9A"/>
<path d="M236.562 132.605C233.886 131.584 232.732 130.856 232.732 129.318C232.732 128.134 233.719 126.901 236.034 126.901C237.916 126.901 239.312 127.474 240.033 127.854L240.908 124.896C239.865 124.367 238.276 123.906 236.109 123.906C231.769 123.906 229.025 126.385 229.025 129.673C229.025 132.549 231.136 134.33 234.445 135.507C236.972 136.429 237.99 137.326 237.99 138.839C237.99 140.483 236.686 141.579 234.352 141.579C232.489 141.579 230.695 140.981 229.516 140.296L228.702 143.335C229.795 144.007 231.993 144.617 234.11 144.617C239.275 144.617 241.703 141.815 241.703 138.583C241.709 135.688 240.039 133.932 236.562 132.605Z" fill="#9A9A9A"/>
<path d="M248.65 135.383H256.193V132.394H248.65V127.232H256.646V124.218H244.993V144.288H257.087V141.274H248.65V135.383Z" fill="#9A9A9A"/>
<path d="M342.718 132.605C340.049 131.584 338.888 130.856 338.888 129.318C338.888 128.134 339.875 126.901 342.191 126.901C344.072 126.901 345.469 127.474 346.189 127.854L347.064 124.896C346.021 124.367 344.432 123.906 342.265 123.906C337.926 123.906 335.181 126.385 335.181 129.673C335.181 132.549 337.292 134.33 340.601 135.507C343.128 136.429 344.146 137.326 344.146 138.839C344.146 140.483 342.843 141.579 340.508 141.579C338.646 141.579 336.852 140.981 335.672 140.296L334.859 143.335C335.951 144.007 338.149 144.617 340.266 144.617C345.431 144.617 347.859 141.815 347.859 138.583C347.865 135.688 346.195 133.932 342.718 132.605Z" fill="#9A9A9A"/>
<path d="M40.2114 77.7264C40.2114 68.6348 46.1031 63.1799 54.7141 63.1799V47.7243C54.7141 43.1786 51.6906 40.146 47.4627 40.146C43.2349 40.146 40.2114 43.1786 40.2114 47.7243V77.7264V77.7264Z" fill="url(#paint0_linear_466_99)"/>
<path d="M65.8953 144.848C69.5209 144.848 72.8424 144.244 75.8658 143.179C60.6058 145.757 54.7141 135.302 54.7141 123.483V74.9992H72.3892C76.468 74.9992 79.1873 72.5768 79.1873 69.0897C79.1873 65.6025 76.468 63.1802 72.3892 63.1802H54.7141C46.1031 63.1802 40.2114 68.6351 40.2114 77.7266V119.392C40.2114 136.062 49.7288 144.848 65.8953 144.848Z" fill="url(#paint1_linear_466_99)"/>
<path d="M75.8659 143.179C81.9066 140.906 86.5939 136.665 89.6111 130.451L82.813 118.177C79.7895 127.269 74.5062 132.12 67.2549 132.12C59.6994 132.12 54.7141 127.723 54.7141 117.723V123.483C54.7141 135.302 60.6058 145.757 75.8659 143.179Z" fill="url(#paint2_linear_466_99)"/>
<path d="M137.949 140.757C103.505 145.906 92.6282 127.424 92.6282 103.637C92.6282 86.3631 103.201 74.5442 118.461 74.5442C124.049 74.5442 128.736 75.7585 132.964 77.7262C134.926 78.6354 136.589 78.9405 138.098 78.9405C141.724 78.9405 144.139 76.5182 144.139 72.8816C144.139 70.6087 142.779 68.3358 139.607 66.8226C133.864 63.9457 126.464 62.2769 118.455 62.2769C94.5839 62.2769 78.1194 79.2456 78.1194 103.942C78.1194 128.184 93.9816 145.003 119.51 145.003C126.47 144.997 132.51 143.633 137.949 140.757Z" fill="url(#paint3_linear_466_99)"/>
<path d="M78.1318 103.936C78.1318 79.2398 94.5963 62.271 118.467 62.271C126.476 62.271 133.876 63.9399 139.619 66.8168C142.792 68.3299 144.151 70.6028 144.151 72.8757C144.151 76.5123 141.736 78.9346 138.11 78.9346C136.602 78.9346 134.938 78.6295 132.976 77.7204C127.842 75.298 122.857 74.5383 118.474 74.5383C97.4646 74.5446 78.1318 87.8767 78.1318 103.936Z" fill="url(#paint4_linear_466_99)"/>
<path d="M168.314 67.1216C166.954 68.4853 166.197 70.1542 166.197 72.1219C166.197 77.1223 170.878 84.5449 181.755 92.1233L194.14 100.76C203.205 107.124 206.83 113.183 206.83 122.275C206.83 128.788 204.26 134.399 200.032 138.334C201.541 136.971 202.447 135.152 202.447 132.73C202.447 127.425 197.158 119.093 185.828 111.215L174.497 103.338C164.98 96.669 161.205 90.4606 161.205 81.9731C161.205 76.9728 163.018 72.427 166.042 69.0956C166.805 68.3296 167.556 67.7256 168.314 67.1216Z" fill="url(#paint5_linear_466_99)"/>
<path d="M158.499 135.152C158.499 137.574 159.709 139.548 162.882 141.062C167.265 143.185 174.361 145.003 180.706 145.003C188.714 145.003 195.357 142.581 200.045 138.334C201.553 136.97 202.46 135.152 202.46 132.73C202.46 127.424 197.17 119.093 185.84 111.215C190.974 114.852 193.091 117.885 193.091 122.275C193.091 128.788 187.957 133.184 180.55 133.184C173.448 133.184 167.407 129.548 164.086 129.548C160.765 129.548 158.499 131.821 158.499 135.152Z" fill="url(#paint6_linear_466_99)"/>
<path d="M181.761 92.1232C176.925 88.636 174.814 85.454 174.814 81.6679C174.814 76.8171 178.744 73.7907 184.332 73.7907C191.434 73.7907 194.755 77.1222 198.983 77.1222C202.305 77.1222 204.571 74.8493 204.571 71.5178C204.571 69.0955 203.36 67.1215 200.188 65.6083C195.202 63.186 189.764 62.2769 183.872 62.2769C177.676 62.2769 172.238 64.0952 168.314 67.1277C166.954 68.4915 166.197 70.1603 166.197 72.1281C166.197 77.1222 170.884 84.5449 181.761 92.1232Z" fill="url(#paint7_linear_466_99)"/>
<path d="M92.6345 103.637C92.6345 127.425 103.512 145.913 137.955 140.757C148.981 134.997 156.841 123.333 162.273 105.455L165.446 95.0002C162.422 91.0585 161.218 86.6684 161.218 81.9669C161.218 76.9666 163.031 72.4208 166.054 69.0894C161.522 73.9402 157.747 81.0578 154.724 91.0585L151.247 102.572C145.051 122.879 135.236 132.574 119.976 132.574C103.207 132.574 92.6345 120.911 92.6345 103.637Z" fill="url(#paint8_linear_466_99)"/>
</g>
<defs>
<linearGradient id="paint0_linear_466_99" x1="47.4647" y1="44.148" x2="47.4647" y2="74.1487" gradientUnits="userSpaceOnUse">
<stop stop-color="#9A9A9A"/>
<stop offset="0.9996" stop-color="#9A9A9A"/>
<stop offset="0.9997" stop-color="#9A9A9A"/>
<stop offset="1" stop-color="#9A9A9A"/>
</linearGradient>
<linearGradient id="paint1_linear_466_99" x1="63.9056" y1="67.2017" x2="56.0374" y2="123.959" gradientUnits="userSpaceOnUse">
<stop stop-color="#9A9A9A"/>
<stop offset="1" stop-color="#9A9A9A"/>
</linearGradient>
<linearGradient id="paint2_linear_466_99" x1="53.0455" y1="134.351" x2="94.0187" y2="121.389" gradientUnits="userSpaceOnUse">
<stop stop-color="#9A9A9A"/>
<stop offset="0.0001" stop-color="#9A9A9A"/>
<stop offset="0.9997" stop-color="#9A9A9A"/>
</linearGradient>
<linearGradient id="paint3_linear_466_99" x1="108.711" y1="82.9517" x2="123.758" y2="135.851" gradientUnits="userSpaceOnUse">
<stop stop-color="#9A9A9A"/>
<stop offset="0.635417" stop-color="#828282"/>
<stop offset="0.786458" stop-color="#9A9A9A"/>
<stop offset="0.9994" stop-color="#9A9A9A"/>
</linearGradient>
<linearGradient id="paint4_linear_466_99" x1="78.1304" y1="83.1052" x2="144.145" y2="83.1052" gradientUnits="userSpaceOnUse">
<stop stop-color="#9A9A9A"/>
<stop offset="1" stop-color="#9A9A9A"/>
</linearGradient>
<linearGradient id="paint5_linear_466_99" x1="161.215" y1="102.727" x2="206.836" y2="102.727" gradientUnits="userSpaceOnUse">
<stop stop-color="#9A9A9A"/>
<stop offset="1" stop-color="#9A9A9A"/>
</linearGradient>
<linearGradient id="paint6_linear_466_99" x1="198.015" y1="124.812" x2="157.836" y2="135.416" gradientUnits="userSpaceOnUse">
<stop stop-color="#9A9A9A"/>
<stop offset="1" stop-color="#9A9A9A"/>
</linearGradient>
<linearGradient id="paint7_linear_466_99" x1="166.2" y1="77.1956" x2="204.57" y2="77.1956" gradientUnits="userSpaceOnUse">
<stop stop-color="#9A9A9A"/>
<stop offset="1" stop-color="#9A9A9A"/>
</linearGradient>
<linearGradient id="paint8_linear_466_99" x1="115.903" y1="126.397" x2="143.982" y2="80.6585" gradientUnits="userSpaceOnUse">
<stop stop-color="#9A9A9A"/>
<stop offset="1" stop-color="#9A9A9A"/>
</linearGradient>
</defs>
</svg>
