<svg width="304" height="123" fill="none" xmlns="http://www.w3.org/2000/svg"><g clip-path="url(#clip0_466_146)" fill-rule="evenodd" clip-rule="evenodd" fill="#9A9A9A"><path d="M2.647 14.409l-.002-.146V2.622H14.13v85.383l.004.267v11.52H2.645V88.151l.002-.146V14.41zm116.777 49.996c.295 17.66 11.097 31.783 24.129 31.547 13.029-.237 23.351-14.745 23.056-32.405C166.312 45.884 155.51 31.76 142.478 32c-13.029.236-23.351 14.744-23.054 32.405zm95.09-21.353c.299.673-.412-1.006-.412-1.006l.412 1.006zm7.827 73.114c.526-.912 1.259-2.307 2.132-4.05l-2.132 4.05zm.674-79.207c.139.392.3.801.481 1.232l3.867 9.635-4.348-10.867zM174.894 85.46c7.099 6.557 13.49 9.946 21.663 9.946 8.366.064 15.803-4.099 15.803-12.112 0-6.687-5.827-10.599-16.237-15.077-8.821-3.885-15.385-6.609-18.816-12.23.419 2.442.638 4.966.638 7.549 0 21.688-15.459 39.272-34.529 39.272-19.07 0-34.528-17.584-34.528-39.272 0-13.076 5.619-24.658 14.257-31.796H99.779v56.264l.002.224v11.563H89.403V88.607c.008-.198.01-.397.01-.602V31.741h-9.15V24.66h9.284c1.199-14.287 9.896-22.366 21.936-22.366 7.807 0 12.093.828 14.569 1.994v9.684c-.039.722-.039 1.164-.039 1.164a5.45 5.45 0 00-.363-.018c-3.757-3.527-7.464-6.152-16.122-6.142-6.896 0-11.457 5.701-9.864 15.684h38.842a30.827 30.827 0 014.91-.395c13.834 0 25.769 9.253 31.279 22.617a33.913 33.913 0 01-.076-2.324c0-13.944 13.263-19.874 27.041-19.844.526-.003 1.043 0 1.55.012 4.849-.079 11.757 1.53 15.975 2.66l8.178 20.44 11.686 29.006 1.372 4.659 1.528-4.659 14.779-37.23c2.727-10.252 13.519-14.689 25.44-14.664 5.926-.027 10.302.7 15.551 2.578v11.26c-6.462-4.78-11.09-7.558-18.422-7.558-6.445 0-14.191 2.904-14.191 12.556-.125 7.254 4.152 8.58 16.701 14.917 10.315 4.558 19.831 9.588 19.887 21.24 0 19.425-18.807 22.789-27.962 22.819-8.173 0-15.664-2.054-19.831-5.58V84.344l.671.564c7.434 7.064 14.004 10.725 22.493 10.725 8.368.064 15.803-4.102 15.803-12.115 0-6.687-5.827-10.599-16.237-15.077-9.949-4.382-16.477-7.286-19.145-14.545-4.057 10.069-22.93 56.839-27.372 66.836h-10.176l4.605-8.75c2.552-5.112 6.263-13.133 9.56-20.806l-19.589-48.125a273.09 273.09 0 01-1.109-2.549c-1.503-3.485-2.902-6.704-7.132-8.326-2.267-.776-4.679-1.183-7.484-1.183-6.445 0-14.688 2.904-14.688 12.556-.125 7.254 4.646 8.58 17.198 14.914 10.315 4.56 19.83 9.59 19.887 21.242 0 19.425-18.81 22.787-27.965 22.819-7.266 0-13.996-1.624-18.327-4.463v-12.6zM35.56 25.384l.128 8.499-.008.572.112-.003c.134-.355.315-.655.485-.88 4.218-4.602 9.535-9.174 22.172-9.174 12.096 0 19.926 10.458 20.24 17.042l.012 46.565v11.787H68.335V85.908l-.002-39.642c0-8.208-7.079-14.143-15.744-14.143-7.203 0-16.448 6.596-16.755 13.273v42.621l.005.314V99.8H25.468V35.17l.002-9.785h10.09z"/></g><defs><clipPath id="clip0_466_146"><path fill="#fff" d="M0 0h304v123H0z"/></clipPath></defs></svg>