<svg width="147" height="161" fill="none" xmlns="http://www.w3.org/2000/svg"><path fill-rule="evenodd" clip-rule="evenodd" d="M63.42 138.819l31.141-50.572H73.548L84.054 71.31h49.369l-10.506 17.054h-17.849l-31.52 51.283c35.064 0 63.926-26.885 63.926-59.81 0-32.688-28.735-59.573-63.926-59.573-2.532 0-5.19.118-7.469.473l-31.394 50.81h38.863L62.914 88.246H13.545L53.8 23.107C28.23 30.805 9.748 53.427 9.748 79.719c0 29.728 23.292 54.481 53.673 59.1zm10.128-127.2c40.128 0 72.914 30.675 72.914 68.219 0 37.663-32.913 68.338-72.914 68.338-40.255 0-72.914-30.675-72.914-68.338s32.659-68.22 72.914-68.22z" fill="#9A9A9A"/></svg>