<svg width="387" height="94" fill="none" xmlns="http://www.w3.org/2000/svg"><path fill-rule="evenodd" clip-rule="evenodd" d="M2.639 91.291V70.55h16.998l17.69-46.806H14.031L13.788 2.71l64.97.294 11.21 35.642L100.6 2.709h132.405c12.653.294 21.845 1.39 26.696 6.432 13.597 13.284 8.246 45.202-10.45 47.03l13.346 14.379h26.442l.507-46.806h-16.499V2.71h111.314v36.147h-25.245V23.744H316.68l.253 11.177h32.739v20.73l-32.992-.284V70.55h17.943v20.741h-90.914l-32.302-35.12h-14.724V70.55h13.281v20.741H115.65V70.55h11.148l-10.641-25.262-15.801 46.003H75.864L60.62 44.78l-9.94 25.77h9.441v20.741H2.64zm194.044-67.547v11.177h37.581c6.297-.294 6.297-11.177 0-11.177h-37.581zm-36.395 46.512L139.39 23.744h29.835l.254 46.512" fill="#9A9A9A"/></svg>