<svg width="687" height="94" fill="none" xmlns="http://www.w3.org/2000/svg"><g clip-path="url(#clip0_466_164)" fill-rule="evenodd" clip-rule="evenodd" fill="#9A9A9A"><path d="M4.041 91.567V2.101h24.102l34.624 46.005c.68.995 1.811 2.875 3.282 5.64 1.584 2.875 3.281 6.303 5.092 10.174a133.69 133.69 0 01-1.132-9.953c-.226-2.875-.34-5.419-.34-7.63V2.1h23.99v89.466h-23.99L35.046 45.452c-.679-.996-1.81-2.876-3.395-5.75a214.76 214.76 0 01-4.978-9.954c.566 3.76.905 7.078 1.131 9.953.227 2.875.34 5.419.34 7.741v44.125H4.04zm98.556 0l31.57-89.466h31.343l31.683 89.466H172.3l-4.64-16.035h-35.417l-4.865 16.035h-24.781zm34.965-33.398h24.893l-9.391-29.527c-.227-.884-.679-2.322-1.132-4.313-.566-1.99-1.132-4.534-1.924-7.74-.565 2.21-1.131 4.312-1.584 6.303-.566 1.99-1.131 3.87-1.584 5.75l-9.278 29.527zm72.531 4.534c3.734 4.092 7.355 7.189 10.975 9.18 3.621 2.1 7.242 3.096 10.75 3.096 3.395 0 6.11-.885 8.26-2.654 2.15-1.77 3.282-3.981 3.282-6.636 0-2.985-1.019-5.308-2.829-6.856-1.811-1.659-6.11-3.318-12.56-4.977-9.052-2.433-15.389-5.529-19.123-9.289-3.734-3.76-5.545-8.958-5.545-15.482 0-8.626 2.942-15.593 8.826-21.012C218.013 2.654 225.595 0 234.873 0c5.092 0 9.958.664 14.484 1.99 4.526 1.328 8.712 3.318 12.786 5.972l-7.808 17.584c-2.828-2.322-5.77-4.203-8.712-5.419-3.055-1.106-5.997-1.77-8.826-1.77-3.055 0-5.545.775-7.355 2.102-1.924 1.438-2.829 3.207-2.829 5.419 0 2.322.792 4.091 2.489 5.419 1.584 1.326 4.866 2.654 9.505 3.87l1.132.332c10.183 2.654 16.973 5.64 20.141 8.847 2.15 2.101 3.847 4.755 4.866 7.852 1.131 3.096 1.697 6.524 1.697 10.284 0 9.4-3.168 17.03-9.505 22.781-6.45 5.862-14.936 8.737-25.573 8.737-6.336 0-12.22-1.106-17.425-3.207s-10.297-5.419-15.163-9.953l11.316-18.137zm74.454 0c3.734 4.092 7.468 7.189 11.089 9.18 3.621 2.1 7.129 3.096 10.75 3.096 3.394 0 6.11-.885 8.26-2.654 2.15-1.77 3.168-3.981 3.168-6.636 0-2.985-.905-5.308-2.715-6.856-1.924-1.659-6.111-3.318-12.674-4.977-8.939-2.433-15.275-5.529-19.009-9.289s-5.545-8.958-5.545-15.482c0-8.626 2.942-15.593 8.713-21.012C292.468 2.654 300.162 0 309.441 0c5.092 0 9.844.664 14.37 1.99 4.526 1.328 8.826 3.318 12.9 5.972l-7.808 17.584c-2.829-2.322-5.771-4.203-8.713-5.419-3.055-1.106-5.997-1.77-8.939-1.77s-5.431.775-7.355 2.102c-1.81 1.438-2.715 3.207-2.715 5.419 0 2.322.792 4.091 2.489 5.419 1.584 1.326 4.752 2.654 9.505 3.87l1.131.332c10.184 2.654 16.86 5.64 20.029 8.847 2.263 2.101 3.847 4.755 4.978 7.852 1.132 3.096 1.698 6.524 1.698 10.284 0 9.4-3.169 17.03-9.505 22.781C325.056 91.125 316.57 94 305.933 94c-6.45 0-12.22-1.106-17.425-3.207-5.319-2.101-10.297-5.419-15.163-9.953l11.202-18.137zM421.462 5.64v26.652c-3.394-3.76-6.789-6.414-10.183-8.184-3.395-1.77-7.016-2.654-10.976-2.654-7.129 0-13.013 2.433-17.426 7.188-4.413 4.866-6.676 11.06-6.676 18.8 0 7.078 2.263 13.05 6.789 17.805 4.526 4.755 10.297 7.078 17.313 7.078 3.96 0 7.581-.885 10.976-2.654 3.394-1.66 6.789-4.424 10.183-8.184V88.25c-3.96 1.88-7.807 3.208-11.768 4.203-3.96.885-7.92 1.437-11.881 1.437-5.092 0-9.618-.663-13.917-1.769-4.187-1.217-8.147-2.986-11.655-5.308-6.903-4.534-12.108-10.064-15.728-16.92-3.508-6.857-5.319-14.487-5.319-23.003 0-6.856 1.132-13.049 3.395-18.689 2.263-5.53 5.771-10.616 10.297-15.15 4.3-4.424 9.278-7.631 14.71-9.843C385.027 1.106 391.137 0 397.813 0c3.961 0 7.921.442 11.881 1.438 3.961.884 7.808 2.322 11.768 4.202zm59.293 67.68c6.902 0 12.673-2.544 17.199-7.41 4.526-4.976 6.789-11.28 6.789-18.91 0-7.41-2.263-13.713-6.902-18.69-4.527-5.087-10.297-7.52-17.086-7.52-6.903 0-12.674 2.433-17.2 7.41-4.526 5.087-6.789 11.28-6.789 18.8 0 7.74 2.263 14.044 6.676 18.91 4.526 4.977 10.297 7.41 17.313 7.41zM529.75 47c0 6.525-1.245 12.496-3.621 18.136-2.376 5.64-5.884 10.617-10.523 15.04-4.753 4.424-10.071 7.852-16.068 10.174-5.997 2.433-12.221 3.65-18.783 3.65-6.563 0-12.787-1.217-18.784-3.65-5.997-2.322-11.315-5.75-15.841-10.174-4.753-4.423-8.26-9.4-10.75-15.15-2.489-5.64-3.621-11.612-3.621-18.026s1.132-12.386 3.621-18.026c2.49-5.64 5.997-10.617 10.75-15.15 4.526-4.314 9.844-7.742 15.841-10.175C467.968 1.327 474.192.11 480.755.11c6.562 0 12.786 1.217 18.896 3.54a51.997 51.997 0 0115.955 10.173 48.377 48.377 0 0110.523 15.15c2.376 5.64 3.621 11.613 3.621 18.027zm120.847 44.567h-23.309l-5.432-38.595a465.464 465.464 0 01-1.018-9.18c-.34-3.317-.566-6.966-.792-10.947-.679 3.76-1.811 8.515-3.508 14.155-.339 1.216-.679 2.101-.792 2.654l-12.447 41.913h-16.633l-12.56-41.913c-.114-.553-.453-1.438-.679-2.654-1.811-5.64-2.942-10.285-3.508-14.045-.226 3.318-.566 6.746-.905 10.064-.34 3.317-.679 6.635-1.132 9.953l-5.431 38.595h-23.197l14.145-89.466h24.78l13.805 46.115c.113.332.226.885.565 1.66 1.245 4.091 2.037 7.63 2.377 10.505.226-1.548.452-3.318.905-5.198.566-1.99 1.131-4.313 1.924-7.077L611.786 2.1h24.78l14.031 89.466zm11.202-76.085h3.508c1.697 0 2.829-.22 3.508-.774a2.344 2.344 0 00.905-1.88c0-.553-.113-.995-.453-1.437-.339-.443-.679-.774-1.244-.885-.566-.221-1.471-.332-2.942-.332h-3.282v5.308zm-2.942 9.953V7.852h6.224c2.15 0 3.621.11 4.639.442.905.332 1.584.885 2.263 1.659.566.885.792 1.659.792 2.654 0 1.216-.453 2.322-1.471 3.318-.905.995-2.15 1.437-3.621 1.548.566.332 1.132.664 1.471.995.679.664 1.584 1.88 2.603 3.428l2.263 3.54h-3.508l-1.697-2.876c-1.245-2.101-2.15-3.539-2.942-4.092-.566-.331-1.358-.553-2.376-.553h-1.698v7.52h-2.942zm7.355-22.67c2.376 0 4.639.553 6.903 1.77 2.149 1.105 3.96 2.764 5.205 4.976 1.244 2.211 1.923 4.534 1.923 6.856s-.679 4.534-1.923 6.746c-1.245 2.212-2.942 3.87-5.092 5.087-2.263 1.216-4.526 1.77-7.016 1.77-2.376 0-4.639-.553-6.902-1.77-2.263-1.216-3.96-2.875-5.205-5.087-1.245-2.212-1.811-4.424-1.811-6.746s.566-4.645 1.924-6.856c1.245-2.212 2.942-3.871 5.205-4.977a13.829 13.829 0 016.789-1.77zm0-2.765c2.829 0 5.545.664 8.26 2.101 2.603 1.438 4.753 3.428 6.224 6.083 1.471 2.543 2.263 5.308 2.263 8.183 0 2.765-.792 5.53-2.263 8.073-1.471 2.654-3.508 4.645-6.111 6.082-2.715 1.438-5.431 2.212-8.373 2.212-2.829 0-5.657-.774-8.26-2.212-2.716-1.437-4.752-3.428-6.223-6.082-1.471-2.544-2.263-5.308-2.263-8.073 0-2.875.792-5.64 2.263-8.183 1.471-2.655 3.621-4.645 6.336-6.083A16.559 16.559 0 01666.212 0z"/></g><defs><clipPath id="clip0_466_164"><path fill="#fff" d="M0 0h687v94H0z"/></clipPath></defs></svg>