<svg width="459" height="185" fill="none" xmlns="http://www.w3.org/2000/svg"><g opacity=".9"><path d="M234.377 84.072h7.99V69.774h5.668v-5.778h-19.327v5.778h5.669v14.298zm19.55 0l4.072-12.006 4.067 12.006h7.816l-7.661-20.076h-8.449l-7.655 20.076h7.81zm19.705 0h7.99V69.774h5.668v-5.778h-19.326v5.778h5.668v14.298zm19.55 0l4.073-12.006 4.066 12.006h7.817l-7.655-20.076h-8.456l-7.655 20.076h7.81zm76.679 14.353c.987 2.273 2.291 4.733 3.588 6.925l5.228 8.83h3.787V94.103h-3.384v7.006c0 3.07.069 5.654.329 8.319l-.068.019a55.748 55.748 0 00-3.408-6.725l-5.172-8.618h-4.178v20.076h3.377V107c0-3.294-.049-5.947-.192-8.556l.093-.019zm-18.147 10.082h6.357l1.813 5.673h3.924l-6.5-20.077h-4.65l-6.426 20.077h3.781l1.701-5.673zm2.142-7.728c.354-1.196.658-2.584.95-3.761h.062c.304 1.164.633 2.534 1.012 3.773l1.577 4.951h-5.159l1.558-4.963zm-61.729 10.679c-1.863 0-3.657-.597-4.837-1.282l-.813 3.038c1.093.673 3.29 1.283 5.408 1.283 5.165 0 7.592-2.802 7.592-6.034 0-2.883-1.67-4.639-5.146-5.965-2.67-1.022-3.831-1.75-3.831-3.288 0-1.183.987-2.416 3.309-2.416 1.881 0 3.278.573 3.998.952l.876-2.958c-1.043-.529-2.633-.99-4.799-.99-4.34 0-7.084 2.479-7.084 5.767 0 2.877 2.111 4.657 5.42 5.834 2.527.922 3.545 1.819 3.545 3.332 0 1.631-1.31 2.727-3.638 2.727zm-52.547-14.64c1.632 0 2.967.362 3.898.785l.795-2.92c-.745-.405-2.44-.891-4.849-.891-6.115 0-10.715 3.985-10.715 10.586 0 6.109 3.868 10.119 10.219 10.119 2.421 0 4.327-.479 5.19-.915l-.602-2.89c-.963.436-2.509.729-3.992.729-4.402 0-6.966-2.802-6.966-7.23 0-4.82 2.936-7.373 7.022-7.373zm102.194 17.362V97.186h5.768v-3.083H332.4v3.083h5.718v16.994h3.656zm73.073-20.077l-2.409 5.144c-.683 1.457-1.236 2.703-1.732 3.985h-.062c-.547-1.357-1.068-2.503-1.745-3.979l-2.384-5.15h-4.184l6.332 11.72v8.357h3.657v-8.457l6.649-11.613h-4.122v-.007zm-159.976-.323c-5.65 0-9.53 4.352-9.53 10.517 0 5.879 3.576 10.219 9.238 10.219h.031c5.482 0 9.548-3.848 9.548-10.574-.012-5.741-3.452-10.162-9.287-10.162zm-.143 17.797h-.031c-3.496 0-5.538-3.375-5.526-7.367-.006-4.004 1.919-7.497 5.569-7.497 3.651 0 5.526 3.58 5.526 7.366-.007 4.197-2.006 7.498-5.538 7.498zm141.754-14.759c1.633 0 2.968.362 3.899.785l.795-2.92c-.745-.405-2.44-.891-4.849-.891-6.115 0-10.715 3.985-10.715 10.586 0 6.109 3.867 10.119 10.218 10.119 2.422 0 4.328-.473 5.191-.915l-.603-2.89c-.962.436-2.508.729-3.992.729-4.401 0-6.965-2.802-6.965-7.23 0-4.82 2.936-7.373 7.021-7.373zm-70.284-2.715h-3.657v20.077h11.889v-3.077h-8.232v-17zm-7.816 11.471V94.11h-3.657v11.707c0 3.935-1.583 5.747-4.216 5.747-2.477 0-4.103-1.824-4.103-5.747V94.11h-3.657v11.489c0 6.314 3.011 8.923 7.624 8.923 4.836-.006 8.009-2.765 8.009-8.948zm-35.22-11.471h-3.384v7.006c0 3.07.069 5.654.329 8.319l-.068.019a55.748 55.748 0 00-3.408-6.725l-5.172-8.618h-4.178v20.076h3.384V107c0-3.294-.05-5.947-.193-8.55l.093-.019c.987 2.273 2.291 4.733 3.589 6.925l5.227 8.83h3.787V94.103h-.006zm15.645 30.115h-3.657v20.076h3.657v-20.076zm-28.794 10.661v-.081c1.868-.667 3.607-2.41 3.607-4.976 0-1.706-.621-3.088-1.708-3.998-1.341-1.121-3.65-1.606-6.127-1.606s-4.116.174-5.501.429v19.647h3.601v-8.189h1.825c2.061.05 3.005.891 3.576 3.487.553 2.479 1.031 4.123 1.335 4.702h3.725c-.397-.779-.937-3.064-1.564-5.555-.497-1.936-1.329-3.312-2.769-3.86zm-3.98-1.445h-2.148v-6.296c.366-.093 1.105-.18 2.254-.18 2.346.006 3.867 1.021 3.867 3.194 0 1.98-1.514 3.282-3.973 3.282zm20.152-.038c-.776 2.435-1.502 4.889-2.036 7.255h-.062c-.522-2.429-1.205-4.776-1.962-7.311l-2.732-9.129h-3.986l6.476 20.076h4.19l6.916-20.076h-3.892l-2.912 9.185zm37.921 1.987h7.543v-2.989h-7.543v-5.162h7.99v-3.014h-11.647v20.07h12.088v-3.014h-8.431v-5.891zm-11.287-8.457c1.633 0 2.968.361 3.899.785l.795-2.921c-.745-.404-2.44-.89-4.849-.89-6.115 0-10.716 3.985-10.716 10.586 0 6.109 3.868 10.119 10.219 10.119 2.421 0 4.327-.473 5.19-.915l-.602-2.89c-.968.436-2.508.729-3.992.729-4.402 0-6.966-2.802-6.966-7.23 0-4.82 2.937-7.373 7.022-7.373zm-76.257 5.679c-2.676-1.021-3.83-1.749-3.83-3.287 0-1.184.987-2.417 3.302-2.417 1.882 0 3.278.573 3.999.953l.875-2.958c-1.043-.529-2.632-.99-4.799-.99-4.34 0-7.084 2.479-7.084 5.767 0 2.876 2.111 4.657 5.42 5.834 2.527.922 3.545 1.819 3.545 3.332 0 1.644-1.304 2.74-3.638 2.74-1.863 0-3.657-.598-4.836-1.283l-.814 3.039c1.093.672 3.291 1.282 5.408 1.282 5.165 0 7.593-2.802 7.593-6.034.006-2.895-1.664-4.651-5.141-5.978zm12.088 2.778h7.543v-2.989h-7.543v-5.162h7.996v-3.014h-11.653v20.07h12.094v-3.014h-8.437v-5.891zm94.068-2.778c-2.669-1.021-3.83-1.749-3.83-3.287 0-1.184.987-2.417 3.303-2.417 1.881 0 3.278.573 3.998.953l.875-2.958c-1.043-.529-2.632-.99-4.799-.99-4.339 0-7.084 2.479-7.084 5.767 0 2.876 2.111 4.657 5.42 5.834 2.527.922 3.545 1.819 3.545 3.332 0 1.644-1.303 2.74-3.638 2.74-1.862 0-3.656-.598-4.836-1.283l-.813 3.039c1.092.672 3.29 1.282 5.407 1.282 5.165 0 7.593-2.802 7.593-6.034.006-2.895-1.664-4.651-5.141-5.978z" fill="#9A9A9A"/><path d="M40.211 77.726c0-9.091 5.892-14.546 14.503-14.546V47.724c0-4.545-3.023-7.578-7.251-7.578s-7.252 3.033-7.252 7.578v30.002z" fill="url(#paint0_linear_466_99)"/><path d="M65.895 144.848c3.626 0 6.947-.604 9.97-1.669-15.26 2.578-21.15-7.877-21.15-19.696V74.999h17.674c4.079 0 6.798-2.422 6.798-5.91 0-3.486-2.719-5.909-6.798-5.909H54.714c-8.61 0-14.503 5.455-14.503 14.547v41.665c0 16.67 9.518 25.456 25.684 25.456z" fill="url(#paint1_linear_466_99)"/><path d="M75.866 143.179c6.04-2.273 10.728-6.514 13.745-12.728l-6.798-12.274c-3.023 9.092-8.307 13.943-15.558 13.943-7.556 0-12.54-4.397-12.54-14.397v5.76c0 11.819 5.89 22.274 21.15 19.696z" fill="url(#paint2_linear_466_99)"/><path d="M137.949 140.757c-34.444 5.149-45.32-13.333-45.32-37.12 0-17.274 10.572-29.093 25.832-29.093 5.588 0 10.275 1.215 14.503 3.182 1.962.91 3.625 1.215 5.134 1.215 3.626 0 6.041-2.423 6.041-6.06 0-2.272-1.36-4.545-4.532-6.058-5.743-2.877-13.143-4.546-21.152-4.546-23.871 0-40.336 16.969-40.336 41.665 0 24.242 15.863 41.061 41.391 41.061 6.96-.006 13-1.37 18.439-4.246z" fill="url(#paint3_linear_466_99)"/><path d="M78.132 103.936c0-24.696 16.464-41.665 40.335-41.665 8.009 0 15.409 1.669 21.152 4.546 3.173 1.513 4.532 3.786 4.532 6.059 0 3.636-2.415 6.059-6.041 6.059-1.508 0-3.172-.306-5.134-1.215-5.134-2.422-10.119-3.182-14.502-3.182-21.01.007-40.342 13.339-40.342 29.398z" fill="url(#paint4_linear_466_99)"/><path d="M168.314 67.122c-1.36 1.363-2.117 3.032-2.117 5 0 5 4.681 12.423 15.558 20.001l12.385 8.637c9.065 6.364 12.69 12.423 12.69 21.515 0 6.513-2.57 12.124-6.798 16.059 1.509-1.363 2.415-3.182 2.415-5.604 0-5.305-5.289-13.637-16.619-21.515l-11.331-7.877c-9.517-6.669-13.292-12.877-13.292-21.365 0-5 1.813-9.546 4.837-12.877.763-.766 1.514-1.37 2.272-1.974z" fill="url(#paint5_linear_466_99)"/><path d="M158.499 135.152c0 2.422 1.21 4.396 4.383 5.91 4.383 2.123 11.479 3.941 17.824 3.941 8.008 0 14.651-2.422 19.339-6.669 1.508-1.364 2.415-3.182 2.415-5.604 0-5.306-5.29-13.637-16.62-21.515 5.134 3.637 7.251 6.67 7.251 11.06 0 6.513-5.134 10.909-12.541 10.909-7.102 0-13.143-3.636-16.464-3.636-3.321 0-5.587 2.273-5.587 5.604z" fill="url(#paint6_linear_466_99)"/><path d="M181.761 92.123c-4.836-3.487-6.947-6.669-6.947-10.455 0-4.85 3.93-7.877 9.518-7.877 7.102 0 10.423 3.331 14.651 3.331 3.322 0 5.588-2.273 5.588-5.604 0-2.422-1.211-4.397-4.383-5.91-4.986-2.422-10.424-3.331-16.316-3.331-6.196 0-11.634 1.818-15.558 4.85-1.36 1.365-2.117 3.033-2.117 5.001 0 4.994 4.687 12.417 15.564 19.995z" fill="url(#paint7_linear_466_99)"/><path d="M92.635 103.637c0 23.788 10.877 42.276 45.32 37.12 11.026-5.76 18.886-17.424 24.318-35.302L165.446 95c-3.024-3.942-4.228-8.332-4.228-13.033 0-5 1.813-9.546 4.836-12.878-4.532 4.851-8.307 11.969-11.33 21.97l-3.477 11.513c-6.196 20.307-16.011 30.002-31.271 30.002-16.769 0-27.341-11.663-27.341-28.937z" fill="url(#paint8_linear_466_99)"/></g><defs><linearGradient id="paint0_linear_466_99" x1="47.465" y1="44.148" x2="47.465" y2="74.149" gradientUnits="userSpaceOnUse"><stop stop-color="#9A9A9A"/><stop offset="1" stop-color="#9A9A9A"/><stop offset="1" stop-color="#9A9A9A"/><stop offset="1" stop-color="#9A9A9A"/></linearGradient><linearGradient id="paint1_linear_466_99" x1="63.906" y1="67.202" x2="56.037" y2="123.959" gradientUnits="userSpaceOnUse"><stop stop-color="#9A9A9A"/><stop offset="1" stop-color="#9A9A9A"/></linearGradient><linearGradient id="paint2_linear_466_99" x1="53.045" y1="134.351" x2="94.019" y2="121.389" gradientUnits="userSpaceOnUse"><stop stop-color="#9A9A9A"/><stop offset="0" stop-color="#9A9A9A"/><stop offset="1" stop-color="#9A9A9A"/></linearGradient><linearGradient id="paint3_linear_466_99" x1="108.711" y1="82.952" x2="123.758" y2="135.851" gradientUnits="userSpaceOnUse"><stop stop-color="#9A9A9A"/><stop offset=".635" stop-color="#828282"/><stop offset=".786" stop-color="#9A9A9A"/><stop offset=".999" stop-color="#9A9A9A"/></linearGradient><linearGradient id="paint4_linear_466_99" x1="78.13" y1="83.105" x2="144.145" y2="83.105" gradientUnits="userSpaceOnUse"><stop stop-color="#9A9A9A"/><stop offset="1" stop-color="#9A9A9A"/></linearGradient><linearGradient id="paint5_linear_466_99" x1="161.215" y1="102.727" x2="206.836" y2="102.727" gradientUnits="userSpaceOnUse"><stop stop-color="#9A9A9A"/><stop offset="1" stop-color="#9A9A9A"/></linearGradient><linearGradient id="paint6_linear_466_99" x1="198.015" y1="124.812" x2="157.836" y2="135.416" gradientUnits="userSpaceOnUse"><stop stop-color="#9A9A9A"/><stop offset="1" stop-color="#9A9A9A"/></linearGradient><linearGradient id="paint7_linear_466_99" x1="166.2" y1="77.196" x2="204.57" y2="77.196" gradientUnits="userSpaceOnUse"><stop stop-color="#9A9A9A"/><stop offset="1" stop-color="#9A9A9A"/></linearGradient><linearGradient id="paint8_linear_466_99" x1="115.903" y1="126.397" x2="143.982" y2="80.659" gradientUnits="userSpaceOnUse"><stop stop-color="#9A9A9A"/><stop offset="1" stop-color="#9A9A9A"/></linearGradient></defs></svg>