<svg width="90" height="90" fill="currentColor" xmlns="http://www.w3.org/2000/svg"><path d="M39.19 5.137c-.073 1.575-.184 2.982-.258 3.094-.166.263-3.338.844-3.522.638-.074-.075-.646-1.407-1.291-2.925-.645-1.538-1.273-2.832-1.42-2.888-.461-.187-6.88 2.119-7.137 2.55-.056.075.331 1.556.848 3.3.498 1.744.848 3.206.774 3.225-.092.038-.793.45-1.549.9l-1.383.863-2.305-2.475-2.305-2.457-1.66 1.294c-.922.731-2.269 1.894-3.006 2.606l-1.328 1.294 1.918 2.625c1.07 1.444 1.936 2.681 1.955 2.738 0 .056-.37.543-.83 1.087-.461.544-.94 1.163-1.088 1.35-.24.375-.332.338-2.86-.937-1.42-.732-2.784-1.332-3.024-1.332-.24 0-.608.188-.811.413-.904 1.012-3.19 5.287-3.19 5.962 0 .3.608.788 2.434 2.007 1.346.88 2.526 1.668 2.619 1.743.073.094-.111.92-.443 1.875l-.609 1.707-.664-.094c-1.493-.225-5.772-.694-5.809-.638-.037.038-.184.525-.35 1.088-.517 1.8-.701 3.225-.646 5.062l.055 1.763 3.007.731 2.987.731v3.657l-.59.13c-.332.057-1.715.376-3.043.713l-2.453.582v1.987c0 1.388.13 2.569.443 3.919.24 1.05.46 1.95.498 1.987.037.057 1.438-.075 3.098-.28 1.678-.207 3.154-.338 3.301-.32.222.057 1.052 2.044 1.254 3.057.074.3-.387.693-2.6 2.118-1.475.975-2.674 1.838-2.674 1.95 0 .32.959 2.025 1.143 2.025.093 0 .111.075.056.188-.166.262 1.254 2.644 2.157 3.6l.793.844 2.73-1.388c1.512-.769 2.803-1.369 2.895-1.331.166.075 2.214 2.512 2.214 2.662 0 .057-.886 1.313-1.955 2.775l-1.955 2.682 1.088 1.012c1.383 1.294 4.02 3.469 4.574 3.769.424.225.553.112 2.73-2.175l2.268-2.4 1.512.9c.83.487 1.512.937 1.512.994 0 .037-.424 1.48-.922 3.187-.516 1.706-.904 3.131-.885 3.15.608.525 5.09 2.213 5.81 2.194.331-.019.645.056.7.15.055.112.295.187.516.187.37 0 .59-.412 1.697-3 .793-1.856 1.365-2.98 1.494-2.925.13.057.885.188 1.697.32 1.254.187 1.494.3 1.586.618.037.225.147 1.669.221 3.244.074 1.556.184 2.925.258 3.056.093.15 1.218.206 3.689.206 2.932.019 3.596-.037 3.836-.262.258-.282.553-3.038.572-5.663l.018-.956 1.439-.225c.774-.113 1.586-.263 1.788-.319.333-.094.517.263 1.66 3 .72 1.688 1.384 3.094 1.513 3.094.387 0 4.039-1.275 5.68-1.988.996-.43 1.55-.768 1.494-.918-.037-.132-.48-1.575-.96-3.188-.995-3.394-1.087-2.962 1.034-4.162l1.18-.675 2.14 2.287c1.973 2.119 2.157 2.269 2.674 2.156.59-.112 2.286-1.425 4.481-3.45l1.328-1.218-1.992-2.72-1.992-2.737 1.07-1.293c.609-.732 1.162-1.332 1.254-1.37.074-.037 1.402.582 2.932 1.35 1.531.788 2.859 1.426 2.951 1.426.314 0 3.892-6.15 3.892-6.675 0-.094-1.236-.994-2.748-2.006l-2.73-1.838.572-1.575c.332-.862.645-1.631.7-1.706.111-.094 4.261.3 5.995.581l.571.113.406-1.725c.609-2.625 1.014-6 .756-6.17-.129-.074-1.586-.45-3.264-.843l-3.025-.731v-3.638l3.246-.787 3.246-.788-.129-1.162c-.295-2.85-1.125-6.675-1.439-6.675-.129 0-1.586.169-3.264.375-1.66.206-3.08.3-3.154.225-.129-.169-1.088-2.944-1.088-3.188 0-.093 1.162-.956 2.582-1.912 1.439-.975 2.638-1.819 2.693-1.913.129-.206-1.715-3.75-2.877-5.493l-.94-1.407-2.952 1.5-2.95 1.52-.406-.526c-.221-.281-.72-.881-1.088-1.294-.388-.43-.701-.843-.701-.956 0-.094.867-1.35 1.936-2.775l1.937-2.625-1.254-1.2c-.683-.656-2.029-1.819-2.988-2.587L67.04 8.98l-2.324 2.475-2.342 2.475-.516-.375a20.144 20.144 0 00-1.494-.9c-.535-.3-.978-.581-.978-.656 0-.075.406-1.538.904-3.244.867-3.019.885-3.15.553-3.337-1.18-.638-6.215-2.42-6.842-2.42-.147 0-.775 1.238-1.512 3-.701 1.65-1.346 3-1.457 3-.092 0-.904-.13-1.79-.3l-1.622-.3-.13-2.755c-.054-1.5-.165-2.888-.202-3.075-.092-.282-.443-.32-4.039-.32H39.32l-.13 2.888zm7.175-.6c.221 3.77.332 4.838.48 4.838.313 0 4.352.731 4.629.844.22.093.553-.525 1.549-2.85.7-1.632 1.31-3.02 1.383-3.113.11-.131 2.95.788 4.666 1.538.682.3.867.468.793.712-.572 1.856-1.77 6.113-1.734 6.15.037.019.517.281 1.07.563.553.28 1.55.862 2.195 1.275l1.18.768 2.268-2.418 2.25-2.438.664.488c.996.73 3.8 3.168 3.8 3.318 0 .075-.867 1.313-1.919 2.757l-1.918 2.625.812.937a35.779 35.779 0 011.586 2.006c.443.6.848 1.088.94 1.088.074 0 1.384-.638 2.896-1.406 1.512-.77 2.84-1.407 2.932-1.407.222 0 1.439 1.97 2.306 3.713l.664 1.35-2.674 1.8c-1.476 1.012-2.675 1.912-2.675 2.006 0 .094.277.919.627 1.8.332.881.683 1.894.756 2.213.056.337.185.656.277.712.092.056 1.586-.075 3.338-.281 1.734-.206 3.19-.356 3.228-.319.074.075.996 5.156.996 5.531 0 .263-.609.47-3.172 1.088l-3.173.769-.018 2.643-.019 2.644 3.191.769c2.084.506 3.19.862 3.19 1.031 0 .45-.774 4.838-.921 5.25l-.148.413-2.84-.357c-1.55-.187-3.025-.318-3.265-.3-.368.057-.516.32-1.106 2.025-.387 1.088-.793 2.157-.904 2.382-.203.375-.055.506 2.508 2.212 1.494 1.013 2.748 1.856 2.785 1.894.166.15-2.71 5.137-2.987 5.137-.074 0-1.384-.637-2.896-1.406-1.512-.769-2.822-1.406-2.914-1.406-.074 0-.442.394-.793.9a31.707 31.707 0 01-1.623 1.95l-.959 1.069 1.955 2.662c1.07 1.444 1.937 2.719 1.9 2.794-.074.187-2.177 2.062-3.375 3l-1.033.806-2.269-2.419-2.286-2.418-.628.356c-.331.206-1.235.731-1.991 1.162-.757.45-1.494.882-1.623.957-.24.15-.166.393 1.549 6.28.074.245-.314.45-1.808 1.05-2.49.976-3.245 1.22-3.522 1.107-.13-.056-.756-1.35-1.42-2.869-.646-1.537-1.236-2.868-1.31-2.943-.073-.094-.737-.038-1.475.112-.756.169-1.881.356-2.49.413l-1.143.13-.11 1.538c-.056.825-.148 2.325-.222 3.338-.11 1.631-.148 1.819-.517 1.912-.498.132-4.518.132-5.016 0-.443-.112-.516-.543-.738-4.593l-.129-2.194-1.125-.131a24.618 24.618 0 01-2.49-.413c-.737-.15-1.42-.206-1.493-.112-.093.075-.701 1.462-1.383 3.075l-1.255 2.943-1.494-.525c-2.065-.712-3.983-1.518-3.983-1.668 0-.094 1.31-4.575 1.77-6.057.074-.243-.203-.468-1.162-.975a35.406 35.406 0 01-2.268-1.312l-1.014-.675-.443.525c-.24.281-1.273 1.387-2.268 2.437l-1.845 1.95-1.125-.9c-1.586-1.237-3.264-2.756-3.264-2.925 0-.093.867-1.35 1.937-2.812l1.918-2.644-1.126-1.237a32.488 32.488 0 01-1.604-1.932c-.258-.393-.572-.712-.682-.712-.111 0-1.457.637-2.988 1.406-1.53.769-2.822 1.406-2.877 1.406-.221 0-3.025-4.987-2.877-5.118.055-.038 1.254-.863 2.674-1.82a326.3 326.3 0 002.674-1.818c.037-.037-.037-.337-.166-.675a203.23 203.23 0 01-.867-2.381c-.332-.975-.7-1.8-.811-1.838-.203-.075-5.22.45-6.012.62-.37.074-.425-.057-.793-1.838-.203-1.05-.443-2.382-.498-2.963l-.111-1.069 3.19-.768 3.21-.788V41.25l-.627-.188c-.332-.093-1.77-.45-3.191-.787l-2.582-.6.13-1.144c.128-1.162.792-4.612.903-4.725.037-.037 1.457.094 3.172.319 1.715.206 3.172.375 3.246.375.055 0 .295-.563.516-1.275.24-.694.609-1.744.849-2.325.24-.6.442-1.144.442-1.238 0-.093-1.18-.956-2.619-1.93a245.347 245.347 0 01-2.73-1.82c-.22-.168 2.638-5.1 2.952-5.1.11 0 1.457.638 3.006 1.425l2.803 1.444.553-.731a79.853 79.853 0 011.679-2.025l1.106-1.313-1.9-2.606c-1.05-1.444-1.899-2.681-1.899-2.756 0-.263 4.039-3.75 4.353-3.75.092 0 1.161 1.069 2.397 2.381l2.213 2.381 1.199-.75a26.218 26.218 0 012.195-1.293 31.833 31.833 0 001.05-.544c.02-.019-.368-1.444-.866-3.169-.516-1.725-.922-3.169-.922-3.225 0-.225 5.311-2.25 5.459-2.1.037.038.645 1.406 1.365 3.056.756 1.744 1.383 2.963 1.512 2.944.13 0 1.217-.206 2.416-.412 1.217-.225 2.25-.394 2.342-.394.074 0 .185-.956.258-2.119.056-1.144.166-2.662.222-3.375l.129-1.256h5.809l.11 1.912z"/><path d="M44.096 11.363c-.59.43-.977 1.443-.83 2.25.222 1.256 1.918 2.1 2.066 1.03.055-.337 0-.412-.203-.337-.148.057-.442-.018-.664-.168-.811-.582-.24-2.588.627-2.25.24.075.295.018.24-.32-.074-.524-.645-.618-1.236-.205zm-3.836 1.031l.111 1.2-.553-1.088c-.406-.787-.646-1.069-.922-1.069-.388 0-.388.057-.277 1.35.203 2.27.295 2.588.7 2.588.296 0 .333-.094.24-.656-.331-2.231-.368-2.175.332-.844.443.825.775 1.238 1.033 1.275.221.037.388 0 .37-.094 0-.075-.112-.956-.222-1.931-.203-1.481-.295-1.781-.572-1.838-.332-.075-.35.02-.24 1.107zm1.605.806c0 1.856.018 1.95.369 1.856.332-.094.369-.263.369-1.95 0-1.725-.019-1.856-.37-1.856-.35 0-.368.13-.368 1.95zm-4.851-1.425c-.295.056-.313.356-.037 1.275.037.131-.129.262-.387.319-.369.075-.46-.019-.553-.563-.13-.712-.258-.843-.627-.618-.221.13-.203.374.074 1.63.48 2.12.48 2.12.866 2.12.332 0 .37-.075.24-.62-.221-.993-.184-1.162.24-1.218.35-.056.424.056.535.694.092.581.203.768.46.768.222 0 .351-.13.351-.337-.018-.375-.682-3.412-.774-3.487-.019-.02-.203-.02-.388.037zm10.734.394c-.443.468-.535.694-.535 1.518 0 .77.092 1.05.461 1.407.517.525 1.107.619 1.273.168.166-.43.147-.45-.258-.45-.701 0-.978-1.256-.443-2.043.203-.3.424-.413.72-.338.313.057.46-.018.516-.262.11-.45 0-.544-.646-.544-.35 0-.738.188-1.088.544zm2.712.375c-.37.412-.83 1.612-.85 2.194 0 .637.683 1.387 1.292 1.387.885 0 1.88-1.8 1.549-2.869-.314-1.05-1.365-1.425-1.992-.712zm1.253.731c.221.675-.406 2.1-.922 2.1-.406 0-.498-.75-.166-1.613.332-.88.904-1.125 1.088-.487zm-18.516-.244c-.35.375-.406.6-.332 1.406.129 1.388 1.033 2.213 2.102 1.95.332-.093.443-.224.406-.524-.037-.32-.166-.375-.572-.338-.645.075-.996-.206-1.143-.9-.148-.713.018-1.256.46-1.406.425-.131.296-.656-.165-.656-.184 0-.517.206-.756.468zm19.733 1.707c-.331.975-.553 1.818-.534 1.856.036.018.387.15.774.243.59.17.72.15.812-.112.073-.15.037-.319-.056-.356-.608-.225-.627-.357-.166-1.725.24-.769.406-1.444.35-1.538-.294-.506-.645-.018-1.18 1.632zM30.965 13.65l-.682.319.627 1.594c.332.88.645 1.668.682 1.78.037.113.35.076.812-.074.608-.206.737-.319.645-.619-.055-.281-.184-.337-.516-.262-.314.093-.48.018-.627-.282-.185-.319-.148-.394.166-.487.424-.113.46-.207.24-.582-.093-.13-.296-.187-.461-.13-.185.074-.351-.02-.48-.245-.166-.318-.13-.393.24-.487.332-.075.424-.206.35-.488-.11-.45-.129-.45-.996-.037zm24.565.469a63.52 63.52 0 01-.737 1.687c-.313.713-.535 1.35-.48 1.444.037.075.333.244.646.375.443.188.627.188.793.019.166-.169.13-.3-.184-.544l-.406-.319.553-1.2c.609-1.368.646-1.631.258-1.781-.184-.075-.35.037-.442.319zm-26.796.581c-.72.338-.83.45-.683.713.093.187.295.28.443.206.203-.075.461.281.922 1.331.59 1.313.682 1.425 1.014 1.238.35-.188.332-.244-.332-1.613-.534-1.125-.627-1.444-.424-1.556.166-.113.185-.263.093-.431-.148-.244-.296-.225-1.033.112zm27.959 1.631c-.461.938-.812 1.725-.775 1.763.295.262 1.31.656 1.439.562.313-.187.203-.618-.185-.75-.295-.093-.313-.187-.147-.562.166-.375.258-.413.571-.263.277.15.406.15.517-.037.24-.394.203-.506-.203-.638-.295-.093-.332-.187-.184-.487.166-.282.276-.319.553-.169.276.15.387.113.535-.15.147-.3.073-.394-.461-.656-.35-.188-.683-.319-.72-.319-.055 0-.46.769-.94 1.706zm-29.527-.844a.268.268 0 00-.147.32c.036.13.11.468.166.75l.129.524-.554-.412c-.442-.32-.645-.375-.959-.244-.387.169-.35.225.535.806.517.338 1.162.975 1.439 1.425.424.675.571.769.83.6.276-.169.258-.262-.222-1.069-.295-.487-.534-1.05-.534-1.256 0-.6-.222-1.556-.35-1.537-.056 0-.204.056-.333.093zm31.998 1.332c-.645.712-.885 1.237-.885 1.912 0 1.238 1.31 1.556 2.231.563.59-.638.572-.788-.203-1.2-.46-.244-.534-.244-.645.056-.055.169-.018.337.074.375.313.112.24.544-.092.675-.96.375-.757-1.238.24-2.081.368-.282.792-.113.792.337 0 .225.13.356.37.356.479 0 .497-.75.036-1.18-.535-.488-1.365-.395-1.918.187zm-20.268.131a27.419 27.419 0 00-6.972 2.287c-7.414 3.6-12.578 9.975-14.625 18.038-.48 1.931-.571 2.606-.645 5.587-.13 4.088.147 6.15 1.254 9.544 1.365 4.163 3.412 7.519 6.529 10.688 3.706 3.768 8.28 6.262 13.61 7.443 2.711.6 7.875.6 10.586 0 11.38-2.512 19.77-11.662 21.283-23.23.277-2.1.11-6.976-.295-8.87-1.162-5.418-3.578-9.956-7.359-13.78-3.762-3.807-7.985-6.188-13.205-7.445-2.028-.487-8.04-.637-10.161-.262zm9.036.975c2.232.394 5.11 1.406 7.396 2.625 7.193 3.806 12.154 10.781 13.574 19.106.406 2.306.258 7.575-.258 9.844-2.398 10.369-10.015 17.962-20.324 20.194-2.213.468-7.746.468-9.94 0-8.19-1.8-14.607-6.77-18.277-14.175-4.04-8.175-3.468-18.244 1.456-25.913C25.93 22.8 32.736 18.544 40.666 17.625c1.844-.206 5.183-.075 7.267.3z"/><path d="M41.496 18.206c-6.05.413-11.637 3.019-16.045 7.481-3.836 3.882-6.289 8.757-7.119 14.1-.406 2.607-.277 7.257.258 9.657 2.25 9.806 9.553 17.193 19.273 19.518 1.807.432 2.471.488 5.293.488 4.74.019 7.801-.713 11.766-2.794 6.769-3.525 11.582-9.975 13.26-17.756.462-2.213.462-7.856 0-10.088C65.49 25.95 54.35 17.344 41.497 18.206zm5.625.825c8.594 1.406 15.676 7.05 19.033 15.15 4.96 11.963-.092 26.025-11.49 31.95-2.12 1.106-4.537 1.969-6.842 2.419-2.416.487-6.935.45-9.406-.094-4.85-1.031-9.037-3.337-12.522-6.862-3.21-3.244-5.386-7.125-6.584-11.682-.535-2.08-.554-2.38-.572-5.85-.019-2.925.055-3.975.332-5.25a27.625 27.625 0 013.836-9.168c1.217-1.838 4.629-5.307 6.473-6.563 2.859-1.95 6.51-3.45 9.812-4.031 1.973-.356 5.883-.356 7.93-.019z"/><path d="M41.404 20.137c-.646.282-1.199 1.05-1.31 1.8-.092.582.259.957.904 1.013.535.019.48.581-.055.731-.203.056-.406.319-.461.619-.074.3-.203.75-.295.994l-.185.45-.313-.45c-.166-.244-.277-.6-.258-.77.036-.187-.037-.505-.148-.73-.184-.32-.35-.375-.885-.32-.59.076-.775-.018-1.513-.73-.885-.863-1.77-1.07-2.213-.525a.884.884 0 01-.59.28c-.387 0-1.328.863-1.18 1.088.055.094-.314.132-.812.094-.848-.037-.94-.019-1.199.506-.165.32-.368.563-.46.563-.314 0-.203.675.184 1.181.498.638.461.806-.092.431-.554-.375-1.2-.393-1.679-.018-.184.15-.608.28-.922.28-.719 0-1.254.563-1.143 1.22.074.375-.019.543-.406.787-.848.506-1.162 1.65-.756 2.738.184.468.166.468-.406.3-.977-.282-1.936-.207-2.268.187-.166.188-.59.656-.96 1.05-.534.581-.608.788-.534 1.313.055.356 0 .712-.11.825-.167.187-.148.28.055.45.295.225.276.825-.019 1.143-.332.375-.147 1.032.406 1.5.46.413.516.507.258.6-.166.075-.516.02-.774-.093-1.255-.582-1.9.862-1.236 2.793.258.75.258.844 0 1.05-.387.282-.369.394.074.507.424.112.498.506.092.506-.295 0-.369.675-.11 1.106.091.131.073.469-.038.75-.24.656-.018 1.838.388 2.063.442.225 2.25-.038 2.452-.375a1.41 1.41 0 00.166-.638c.019-.637.277-.862 1.088-.881.499 0 .904.112 1.144.337.203.188.664.338 1.051.338l.683.019v2.625c.018 1.443.073 3.056.166 3.562.092.619.037 1.706-.148 3.094-.443 3.244-.498 3.712-.295 3.281.092-.206.166-.694.166-1.087.018-1.22.553-.694 1.402 1.368.24.62.258.62.147.094-.055-.319-.295-1.031-.535-1.594-.332-.862-.424-1.443-.46-3.28-.038-2.982 0-5.12.128-6.9.093-1.276.166-1.5.517-1.632a.653.653 0 01.719.15c.295.262.35.262.682-.113.203-.225.37-.487.37-.58 0-.095.331-.17.718-.15l.72.018.11 2.081c.056 1.125.148 4.106.203 6.619.11 4.519.35 6.712.885 8.194.388 1.03.388.6 0-.75-.184-.657-.332-1.875-.35-2.907-.018-.975-.092-4.5-.148-7.818l-.129-6.038.554-.281c.719-.375.848-.375 1.789.094.571.262.811.525.885.88.203 1.107.166 8.588-.055 9.657-.332 1.613-.111 1.519.258-.094.258-1.087.313-2.193.295-5.362-.019-2.175.018-3.975.074-3.975.313 0 .83 1.312.83 2.156 0 .938.11 1.238.83 2.269.258.375.368.844.387 1.669.018 1.687.018 1.668.811 2.568 1.051 1.22 1.162 1.632.812 3.02-.148.637-.37 1.574-.461 2.08-.24 1.182-.775 2.25-1.31 2.625-.221.17-.959.47-1.623.694-1.641.563-2.028.844-2.028 1.5 0 .769-.406.844-1.476.281-.498-.262-1.143-.487-1.42-.468l-.516.018.46.132c.259.093.757.337 1.107.543 1.125.713 2.582.413 2.269-.468-.11-.32.46-.582 1.567-.732l.96-.13.018.543c0 .3.129.844.276 1.2l.259.656-.13-.656c-.258-1.369-.202-1.556.59-1.931.407-.207.886-.488 1.089-.675.332-.282.332-.263.221 1.012-.074.788-.055 1.425.055 1.594.148.206.166.094.093-.375-.074-.488-.019-.75.184-.919.314-.262.295-.281.553.619.056.15.572.637 1.162 1.069.59.45 1.088.862 1.125.918.019.075.166.3.314.488.258.356.258.356.276 0 0-.206-.424-.75-.922-1.219-.516-.469-.922-.956-.922-1.069 0-.093.258-.43.553-.73l.572-.545.406.488c.221.281.793.675 1.29.881.554.244.868.506.886.713 0 .206.055.243.11.093.038-.112-.128-.487-.387-.806-.387-.45-.442-.637-.276-.844.443-.543 1.254-.262 2.434.825.59.563.627 1.07.13 1.725-.388.507-.48 1.032-.203 1.2.092.075.129-.056.073-.262-.055-.225.111-.638.48-1.106.313-.394.572-.938.572-1.182v-.45l1.346.45c.72.244 1.494.582 1.697.75.368.32.368.32.018-.093-.184-.225-.848-.62-1.457-.844-1.014-.394-2.324-1.35-2.12-1.556.055-.057.479.075.958.3.609.262 1.07.356 1.55.28.442-.074.885-.018 1.235.17l.553.28-.442-.374c-.277-.244-.701-.375-1.236-.375-.94 0-1.55-.488-1.55-1.2 0-.581.259-.75.554-.394.13.15.535.469.904.694.608.394.885.431 3.098.431 1.346 0 2.453-.019 2.453-.056 0-.038-.295-.188-.646-.338-.479-.206-1.014-.243-2.084-.15-1.549.132-2.084-.018-2.434-.675-.184-.337-.148-.356.24-.206.24.094 1.752.15 3.393.131 2.73-.037 2.988-.075 3.523-.468.774-.563.737-.62-.092-.17-.554.282-.904.338-1.716.245-.553-.057-1.42-.17-1.936-.225-.498-.057-.996-.207-1.07-.32-.092-.13-.129-.055-.074.188.074.338 0 .375-.405.3-.258-.037-.683-.28-.94-.525-.259-.225-.868-.58-1.384-.768-.627-.244-1.014-.525-1.254-.938-.387-.694-1.033-5.362-1.107-7.987l-.036-1.65.608-.563c.517-.469.72-.544 1.199-.431.332.056.608.131.627.15.018 0 .129.9.258 1.987.203 1.8.148 5.382-.11 7.032l-.093.562.203-.562c.277-.732.295-.75.627-.47.24.207.258.188.166-.074-.055-.169-.221-.3-.369-.3-.147 0-.258-.188-.24-.431 0-.394.019-.394.185-.038.129.281.148.206.074-.319-.056-.393-.019-.712.092-.75.129-.037.11-1.012-.092-3.206-.332-3.731-.332-3.506-.074-3.506.092 0 .738-.338 1.402-.75.682-.413 1.346-.75 1.475-.75.203 0 .24.581.24 2.756-.019 1.538 0 3.019.018 3.338.019.3-.037.975-.11 1.5-.074.506-.093.88-.019.825.295-.282.517-2.532.48-5.063-.019-2.719-.019-2.737.405-2.869.793-.206 1.291-.112 1.845.357.553.468 1.328.618 1.53.28.056-.093-.018-.374-.184-.618l-.277-.45.96.244c1.143.3 1.788.319 2.175.075.24-.169.24-.206 0-.375-.147-.094-.387-.188-.497-.188-.332 0-.296-.28.036-.562.24-.206.406-.188.941.056.35.188.904.319 1.236.319.48 0 .682.112.922.562.516.882 1.604 1.332 2.434 1.013.646-.263.96-1.556.461-1.95-.074-.056-.092-.45-.037-.9.056-.619.148-.788.425-.788.203 0 .442-.206.571-.468.166-.375.13-.638-.184-1.407-.221-.525-.35-1.068-.295-1.218.055-.132.018-.413-.092-.62-.148-.28-.13-.43.055-.58.129-.113.295-.47.369-.77.073-.45 0-.655-.406-1.068-.424-.45-.461-.525-.166-.581.35-.075.424-.319.13-.506-.093-.057-.13-.357-.056-.657.11-.618-.332-1.5-.756-1.5-.13 0-.332-.206-.443-.45-.314-.693-1.033-1.125-1.494-.88-.516.28-.553.262-.756-.263-.092-.263-.313-.47-.516-.47-.277 0-.332-.15-.314-.75 0-.393.074-.787.148-.862.073-.075.129-.243.129-.375 0-.318-1.236-1.575-1.55-1.575-.313 0-.608-.356-.7-.843-.037-.282-.277-.413-.978-.525-.867-.15-.94-.132-1.383.393-.258.32-.682.62-.959.675-.313.075-.627.338-.793.675-.35.694-.756.732-.885.094-.056-.356.037-.581.369-.844 1.549-1.237 1.918-1.706 1.991-2.493.093-1.238-.258-2.007-1.106-2.494-.535-.3-.756-.544-.793-.919-.055-.431-.13-.487-.517-.412a.833.833 0 01-.737-.263c-.443-.506-1.623-.806-2.103-.544-.313.17-.442.132-.7-.168-.259-.32-.443-.375-1.015-.282-.406.075-.774.282-.885.488-.166.319-.221.319-.59.056-.221-.15-.535-.281-.701-.281-.166 0-.406-.131-.535-.281-.258-.32-1.401-.375-1.568-.094-.073.112-.276 0-.498-.281-.405-.544-.922-.6-1.272-.17-.221.263-.258.226-.443-.318-.203-.581-.276-.637-1.032-.675-.443-.037-1.07.056-1.365.206zm5.772 5.682c-.055.487-.645 1.05-.903.88-.074-.037.018-.355.184-.73.369-.788.793-.882.72-.15zm5.017.637c0 .319-.074.525-.185.45-.092-.056-.184-.319-.184-.581 0-.244.092-.45.184-.45.111 0 .185.262.185.581zM40.96 27.637c.203.244-.147.863-.516.863-.221 0-.24-.056-.056-.281.13-.15.185-.47.111-.713-.055-.244-.037-.506.037-.581.074-.075.166 0 .184.206.037.188.148.413.24.506zm-7.45-.037c1.272 1.35 1.401 1.631.626 1.369-.258-.075-.387-.282-.387-.563 0-.262-.203-.6-.48-.825-.276-.225-.424-.394-.331-.394.092 0 .35.188.571.413zm2.526.169c-.184.3-.443.168-.443-.225 0-.338.037-.357.277-.17.148.132.221.3.166.395zm12.043.937c-.535.45-.738.45-.498 0 .092-.206.184-.544.184-.75 0-.544.443-.6.59-.056.093.356.038.544-.276.806zm7.47-.844c-.24.17-.48.244-.554.17-.148-.15.314-.47.7-.47.167 0 .111.113-.147.3zm-16.599.17c0 .093-.092.205-.203.243-.11.037-.203-.075-.203-.244 0-.169.092-.281.203-.244.11.038.203.15.203.244zm6.658.187c.147.375-.093.487-.48.187-.258-.187-.276-.262-.092-.337.387-.17.48-.15.572.15zm-1.974.937c.185.15.277.263.166.263-.092 0-.35-.113-.535-.263-.202-.15-.276-.281-.184-.281.11 0 .35.131.553.281zm-1.217 1.031c.11 0 .185.207.185.47 0 .543-.35.618-.978.205-.221-.15-.72-.262-1.106-.243-.701.018-1.052-.244-1.052-.77 0-.355.646-.262 1.015.15.48.545 1.014.488 1.014-.093v-.469l.369.375c.203.207.461.375.553.375zm-8.465.188c.443.375.443.375.074.6-.424.262-1.752.337-1.752.112 0-.093.203-.243.46-.337.259-.094.462-.3.462-.469 0-.375.24-.356.756.094zm1.826.356c0 .056.055.3.11.525.13.506-.202.581-.737.188-.295-.225-.314-.3-.092-.638.202-.356.719-.412.719-.075zm2.95 1.463c0 .375-.442.206-.516-.188-.037-.225.019-.281.222-.206a.462.462 0 01.295.394zm8.19.375c.294.862.294.88-.167 1.368-.258.263-.46.694-.46.938s-.167.619-.37.844c-.203.225-.535.862-.737 1.425l-.37 1.012.111-1.031a26.77 26.77 0 00.166-2.25c.037-1.2.037-1.219.701-1.556.59-.3.682-.432.682-.994 0-.356.037-.638.074-.638s.203.394.37.882zm-9.997.637c.277.188.627.356.793.356.166 0 .24.075.185.188-.203.337-.96.206-1.07-.188-.055-.187-.369-.487-.7-.637-.443-.206-.48-.263-.167-.188.258.057.683.263.96.47zm20.158 1.8c-.055.281-.313.525-.627.638a1.36 1.36 0 00-.756.75c-.13.3-.369.543-.535.543-.166 0-.535.132-.83.282-.608.318-.608.375.203-1.425.48-1.032.553-1.107 1.162-1.107.793 0 1.014-.15 1.217-.75l.166-.468.055.543c.037.282.019.732-.055.994zm-17.354-.656c-.056.206-.277.544-.48.75-.184.187-.314.469-.277.581.111.338 1.144.375 1.402.056.221-.262.295-.262.756.075.535.375.83 1.05.535 1.22-.092.055-.48-.076-.867-.3-.48-.282-.83-.376-1.07-.263-.7.3-1.936.15-2.397-.3-.24-.225-.443-.525-.443-.675 0-.3.941-.338 1.236-.038.35.356.83.038.775-.525-.056-.769.166-1.162.59-1.05.258.075.332.206.24.469zm19.936.15c.055.112-.018.131-.166.075-.332-.131-.387-.263-.13-.263a.35.35 0 01.296.188zm-1.014.281c-.609.356-.849.356-.554 0a.934.934 0 01.627-.281c.37.019.37.037-.073.281zm-6.142 1.106c-.313.657-1.235.844-1.235.282 0-.113.073-.15.184-.075.092.056.314-.057.498-.263.498-.544.811-.506.553.056zm-23.754-.018c.295.375-1.199 1.368-1.567 1.05-.388-.338-.314-.507.313-.638.314-.075.609-.244.664-.394.13-.337.314-.337.59-.018zm2.213 1.125c.166.3.498.637.738.768.369.207 1.051 1.575.867 1.763-.056.056-.996-.375-2.324-1.069-.166-.094-.295-.469-.332-.937-.037-.47-.166-.825-.332-.9-.516-.188-.24-.375.424-.263.48.075.756.263.96.638zm19.291-.3c.148.43-.295 1.518-.664 1.612-.184.056-.387.319-.442.581-.332 1.613-.258 1.5-.646 1.144-.221-.206-.369-.581-.369-.956 0-.338-.073-.675-.184-.731-.092-.057-.184-.244-.184-.394 0-.188.129-.244.442-.15.553.131 1.291-.525 1.144-1.013-.13-.412.737-.506.903-.093zm11.158-.038c-.129.15-.332.281-.443.281-.11 0-.036-.13.148-.28.461-.357.59-.357.295 0zm-33.75 1.313c-.129.15-.166.28-.074.3.093 0-.018.075-.24.168-.479.207-.553.713-.147 1.013.148.112.332.487.387.844.13.6.111.618-.276.412-.203-.131-.388-.337-.388-.469 0-.13-.166-.468-.368-.73l-.37-.47.775-.675c.849-.712 1.07-.843.701-.393zm23.902.375c-.13.337-.48.375-.48.037 0-.337.443-.769.517-.506.036.112.018.319-.037.469zm-6.806.318c-.055.15-.11.094-.11-.112-.019-.206.037-.319.092-.244.055.056.074.225.018.356zm-6.897.975c.166.263.553.488.904.563.479.094.663.244.848.712.11.32.166.657.11.732-.129.225-.774.206-.848-.02-.037-.112-.424-.262-.867-.337-.756-.13-.83-.187-1.014-.88-.184-.676-.277-.75-.848-.826-.609-.075-.627-.075-.185-.206.94-.3 1.605-.206 1.9.262zm26.133 1.8a.186.186 0 01-.184.188c-.093 0-.185-.094-.185-.188 0-.112.092-.187.185-.187.11 0 .184.075.184.187zM53.189 43.35c-.056.075-.332.281-.646.431-.516.281-.535.263-.535-.094 0-.206.222-.825.498-1.368l.498-.975.13.918c.091.525.11.994.055 1.088zm.848-1.556c0 .318-.332.393-.443.112-.055-.169 0-.281.166-.281.148 0 .277.075.277.169zm9.221.393c.24.17.24.207 0 .375a1.536 1.536 0 01-.682.188c-.295 0-.369-.094-.295-.375.11-.394.535-.488.977-.188zm-26.317 1.294c-.11.056-.24.356-.314.638-.092.393-.037.618.221.843.203.17.498.732.683 1.257.24.693.645 1.237 1.53 2.1l1.218 1.143-.019 1.52c-.018.824-.073 1.762-.147 2.062-.11.562-.13.562-.646.3-.793-.413-1.29-1.182-1.29-1.95 0-.413-.277-1.257-.665-2.082-.387-.768-.7-1.725-.737-2.137-.019-.394-.258-1.256-.535-1.913-.627-1.518-.553-2.118.295-1.987.314.056.498.131.406.206zm14.145.506c0 .3-.184.432-.48.32-.147-.057-.258-.3-.258-.545 0-.412.037-.43.37-.225.202.132.368.338.368.45zm10.53-.187c.093.281.148.525.13.544-.037.018-.24.15-.461.262-.24.113-.424.356-.424.506 0 .207-.11.263-.295.188a3.174 3.174 0 00-.83-.113c-.387 0-.535-.093-.535-.337 0-.469.35-.788.867-.788.24 0 .516-.168.645-.375.332-.525.683-.468.904.113zm-35.612.262c0 .094-.129.188-.295.188-.147 0-.221-.094-.166-.188a.35.35 0 01.295-.187c.092 0 .166.075.166.187zm20.656 1.07c-.092.524-.277 1.218-.443 1.518-.313.637-.645 3.731-.682 6.412l-.018 1.782-.259-1.875A43.364 43.364 0 0145 49.125c0-1.088-.092-2.344-.203-2.813-.092-.45-.129-1.03-.073-1.275.092-.375.184-.412.7-.318.461.093.683.037.94-.263.204-.225.37-.375.407-.356.018.037-.037.487-.111 1.031zm-5.736.262c-.11.45-.221 1.05-.24 1.33-.018.432-.11.526-.497.526-.277 0-.683-.169-.922-.375l-.443-.356.516-.02c.646 0 1.162-.524 1.439-1.518.313-1.012.424-.656.147.413zm3.301-.488c.019.019-.092.338-.24.731-.239.582-.331.657-.626.488-.388-.206-1.125-1.088-1.125-1.331 0-.132 1.826-.02 1.991.112zm-5.901.131c.258.263.295.825.037.994-.221.131-.812-.769-.646-1.031.148-.244.332-.244.609.037zm11.25.188c.203.206.332 1.837.129 1.837-.074 0-1.346-.562-1.53-.693-.093-.038.958-1.37 1.087-1.37.056 0 .185.095.314.226zM42.99 52.78l-.11 4.875-.24-1.706c-.111-.938-.222-2.963-.222-4.5 0-2.794 0-2.794-.553-3.619-.94-1.425-.72-1.781.442-.694l.812.77-.13 4.874zm9.387-6.112a9.238 9.238 0 00-1.051.45c-.775.412-.977.393-.977-.075 0-.263.092-.357.258-.3.147.056.498.037.793-.057.276-.075.719-.15.977-.15h.461l-.46.132zm1.42 5.868c-.055.15-.11.094-.11-.112-.019-.206.037-.319.092-.244.055.056.074.225.018.356zM27.24 56.381c-.055.188-.092.038-.092-.319 0-.356.037-.506.092-.337.037.187.037.487 0 .656z"/><path d="M30.393 37.256c.13.056.296.038.35-.019.075-.056-.036-.112-.239-.093-.203 0-.258.056-.11.112zm20.988 20.775c.443.731.443.75.443.525 0-.112-.166-.394-.387-.637l-.37-.45.314.562zm.259 1.125c0 .15.036.282.073.282s.11-.132.185-.282c.055-.15.018-.281-.074-.281-.11 0-.185.131-.185.281zM24.547 17.325c-.166.206 0 .562.83 1.781l1.051 1.5.554-.319c.627-.375.811-.731.516-1.031-.148-.15-.258-.15-.424.019-.13.131-.277.225-.35.225-.074 0-.517-.544-.997-1.219-.46-.675-.866-1.219-.903-1.219-.037 0-.166.113-.277.263zm36.885 1.931c-.627.806-1.125 1.5-1.125 1.556 0 .056.277.281.59.506.535.375.628.394.867.15.24-.243.24-.3-.055-.524-.295-.207-.313-.32-.11-.675.202-.394.24-.394.534-.132.295.282.35.282.572.019.203-.244.184-.337-.11-.544-.277-.225-.296-.3-.093-.543.184-.244.295-.263.59-.075.258.168.388.168.572-.02.184-.187.13-.318-.314-.693-.313-.244-.608-.45-.682-.469-.074 0-.627.656-1.236 1.444zM22.445 18.9c-.59.675-.259 1.837.793 2.737 1.07.9 2.213.45 2.213-.9 0-.768-1.402-2.175-2.158-2.175-.313 0-.682.15-.848.338zm1.733.994c.554.6.683 1.18.332 1.406-.48.281-1.641-.9-1.641-1.688 0-.506.738-.337 1.31.282zm-3.965 1.219c-.258.28-.48.562-.48.656 0 .075.59.694 1.329 1.369 1.032.974 1.383 1.18 1.567 1.012.203-.169.148-.319-.295-.787-.498-.526-.516-.62-.313-1.032.295-.562.184-1.069-.314-1.425-.572-.393-.94-.356-1.494.207zm1.18.543c.35.431.019.732-.387.357-.184-.17-.35-.394-.35-.488 0-.244.498-.169.738.131zm43.562.862c-1.125 1.107-1.31 1.37-1.125 1.594.184.244.314.188.83-.3.572-.581.59-.6 1.088-.262.461.3.498.3.977-.057.628-.487.72-1.162.222-1.8-.222-.28-.443-.506-.517-.506-.073 0-.737.6-1.475 1.331zm1.586.282c-.184.206-.424.262-.645.187-.296-.131-.296-.169.129-.487.553-.432.977-.17.516.3zm-4.647-.75c-.96.656-.628 1.012.442.45.627-.319.72-.45.553-.675-.276-.319-.147-.357-.995.225zm-44.06 1.875c-.295.356-.48.787-.424.937.11.3.406.338.572.075.073-.112.627.207 1.31.77 1.05.843 1.235.937 1.474.693.24-.225.111-.394-.958-1.256-.867-.713-1.162-1.05-1.015-1.2.13-.132.13-.263 0-.45-.295-.357-.387-.32-.959.43zm48.946.544l-1.511 1.237.516.619c.424.506.572.581.756.394.203-.188.203-.338.055-.62-.147-.28-.129-.43.074-.6.24-.187.35-.187.627.076.277.244.37.262.535.056.13-.15.13-.337.037-.506-.24-.394-.221-.506.11-.638.185-.075.406.02.554.207.203.3.258.3.516.056.24-.244.203-.356-.24-.9l-.516-.619-1.512 1.238zm1.384 1.912c-1.42.919-1.586 1.069-1.346 1.313.24.243.332.243.756-.038.572-.375.609-.244.129.45-.295.412-.314.544-.11.825.202.281.276.244.719-.45.332-.506.59-.731.774-.656.35.131 1.291-.338 1.439-.75.11-.281-.332-1.482-.609-1.669-.074-.037-.867.394-1.752.975zm1.512.544c-.184.206-.424.262-.645.187-.295-.131-.295-.168.129-.487.553-.431.977-.169.516.3zm-53.151-1.144c-.092.263.11.432 1.641 1.388l.369.225-.369-.094c-1.863-.487-2.195-.506-2.434-.187-.222.3-.074.45 1.364 1.406 1.494.994 1.881 1.087 1.9.506 0-.056-.48-.431-1.051-.806-.59-.394-.94-.656-.793-.6.166.037.774.187 1.364.319.886.187 1.107.187 1.236-.038.092-.131.166-.281.166-.337 0-.094-3.024-2.063-3.19-2.063-.056 0-.13.131-.203.281zm53.557 2.569c-1.66.919-1.844 1.069-1.844 1.537 0 .582.664 1.425 1.143 1.425.498 0 2.914-1.35 2.914-1.63 0-.47-.406-.413-1.66.224-.719.375-1.383.619-1.475.563-.443-.282-.092-.694 1.125-1.313.904-.468 1.272-.768 1.236-.975-.093-.469-.332-.431-1.439.169zm-55.42.619c-.203.356-.314.675-.277.712.166.169 3.136 1.631 3.283 1.631.092 0 .295-.3.461-.656.295-.618.295-.656-.055-.843-.203-.113-.369-.132-.369-.057-.018.45-.332.657-.72.45-.313-.168-.35-.3-.202-.562.24-.45-.35-.75-.59-.3-.185.319-.314.337-.683.112-.184-.112-.184-.244-.037-.543.148-.3.13-.394-.092-.488-.166-.056-.313-.113-.332-.113-.037 0-.202.3-.387.657zm-.959 2.212c-.184.413-.13.488.7.975.48.3.868.563.85.6-.038.019-.48-.075-1.015-.206-.922-.262-.978-.244-1.162.113-.24.468-.203.506 1.494 1.443 1.53.844 1.752.9 1.918.469.074-.206-.221-.45-1.236-.919-.72-.356-1.29-.637-1.236-.656.056 0 .554.131 1.107.281 2.121.581 2.471.188.738-.825-.609-.356-1.07-.675-1.051-.694.037-.037.608.15 1.272.394 1.088.413 1.236.413 1.328.15.074-.168.055-.356-.018-.431-.13-.113-3.21-1.125-3.412-1.125-.056 0-.185.206-.277.431zm57.246.281c-.904.282-1.623.582-1.623.657-.018.562.184.581 1.365.187.682-.206 1.235-.375 1.235-.337 0 .037-.498.356-1.106.694-.609.337-1.088.693-1.051.806.073.206.774.225 1.88.037.701-.131.701-.112-.313.356-.756.357-1.07.6-1.07.844 0 .206.093.356.185.356.166 0 3.098-1.424 3.283-1.593.037-.019 0-.263-.056-.525-.129-.488-.276-.488-2.028-.019-.203.056.073-.169.608-.487 1.052-.657 1.033-.62.775-1.144-.24-.431-.092-.45-2.084.168zM12.43 34.706c-.184.3.093.469 1.31.788 1.07.28 1.088.3.369.3-1.347.037-2.084.225-2.177.58-.073.282.185.413 1.605.826 1.992.581 2.195.581 2.102.169-.037-.207-.442-.413-1.162-.62l-1.106-.318 1.328-.15c.922-.094 1.365-.225 1.438-.431.056-.15.074-.3.037-.338-.092-.093-3.227-1.012-3.448-1.012-.093 0-.222.094-.296.206zm60.05.3c-.867.244-1.66.488-1.79.525-.165.056-.184.225-.018.694.406 1.256.978 1.537 1.808.956.258-.187.663-.3.922-.281.756.094 1.162-.525 1.014-1.444-.074-.431-.184-.806-.24-.844-.073-.037-.83.132-1.696.394zm1.29.825c0 .281-.092.375-.405.319-.498-.075-.646-.469-.203-.581.572-.15.608-.132.608.262zm-1.678.731c-.295.207-.719.02-.719-.28 0-.338.811-.45.885-.113a.38.38 0 01-.166.393zm-60.252 1.35c-.11.131-.24.544-.313.919l-.13.675 1.863.375c1.568.319 1.863.337 1.955.112.148-.412-.055-.618-.608-.618-.59 0-.332-.32.332-.413.313-.037.48-.187.516-.45.055-.394.018-.394-.775-.225-.719.15-.866.131-1.198-.206-.425-.431-1.347-.525-1.642-.169zm1.328.806c.074.207-.037.282-.442.282-.37 0-.554-.094-.554-.282 0-.168.166-.28.443-.28.24 0 .48.13.553.28zm57.892-.58a2.3 2.3 0 01.129.412c0 .038.166.075.368.075.277 0 .37.131.37.469 0 .3-.111.469-.277.469-.314 0-.37.487-.093.656.111.075.941-.206 1.845-.6 1.383-.6 1.66-.788 1.66-1.144 0-.337-.093-.412-.61-.412-.35 0-1.272-.057-2.065-.132-1.328-.112-1.438-.093-1.328.207zm2.342.768c-.849.338-.922.338-.922 0 0-.206.202-.28.793-.262l.774.019-.645.243zm-.129 1.744c-1.273.506-1.716.769-1.716 1.013 0 .187.037.337.074.337.166 0 3.19.581 3.486.675.276.094.332.019.276-.337-.055-.376-.202-.45-1.327-.62l-1.291-.187 1.198-.393c.922-.3 1.2-.47 1.236-.788.074-.506.11-.525-1.936.3zm-62.023.694c0 .825.018.843.609.843.313 0 1.143.057 1.825.113l1.236.131.13-.712c.091-.507.054-.75-.13-.863-.424-.262-.535-.206-.535.3 0 .375-.092.469-.46.469-.37 0-.462-.094-.462-.469 0-.337-.092-.469-.369-.469-.24 0-.369.132-.369.375 0 .244-.129.375-.368.375-.277 0-.37-.13-.37-.468s-.091-.47-.368-.47c-.314 0-.369.132-.369.845zm-.184 1.5c0 .525.46.825 1.604 1.05.682.131 1.088.281.885.319a19.03 19.03 0 00-1.328.337c-.756.206-.977.356-.977.638 0 .206.018.374.055.374.019 0 .83-.243 1.79-.543 1.4-.413 1.77-.6 1.807-.9.055-.338-.148-.431-1.568-.788-.885-.225-1.77-.45-1.936-.506-.185-.056-.332-.038-.332.019zm61.284.543c-.627.3-.922.938-.719 1.575.295.938 2.6 1.275 3.43.507.554-.507.498-1.5-.092-1.894-.645-.431-1.9-.506-2.618-.188zm1.863.675c.295.113.48.32.48.544 0 .75-2.213.713-2.361-.037-.11-.544 1.014-.844 1.881-.507zm-61.764 1.969c-1.273.469-1.55 1.257-.72 2.1.406.413.59.469 1.458.394 1.327-.112 1.936-.544 1.936-1.35 0-1.144-1.236-1.688-2.674-1.144zm1.844.788c.295.3.295.337-.092.656-.609.506-2.121.413-2.121-.131 0-.263.203-.45.646-.6.885-.3 1.217-.3 1.567.075zm57.467.037c-.48.487-.498 1.35-.037 1.781.867.788 2.914.75 3.338-.075.554-1.05-.22-1.912-1.825-2.025-.922-.075-1.144-.019-1.476.319zm2.269.581c1.18.45.147 1.294-1.144.938-.737-.188-1.014-.638-.645-.994.184-.188 1.254-.15 1.789.056zm-60.344 1.632c-.37.075-.406.168-.296.675.167.806.222.881.554.75.184-.056.258-.244.203-.469-.074-.281-.019-.356.295-.3.608.094.627.788.037 1.05-1.144.525-2.343.094-1.752-.637.184-.225.202-.32.018-.507-.184-.169-.313-.131-.59.225-.775.975-.166 1.894 1.29 1.894.978 0 2.085-.6 2.195-1.2.13-.675-.147-1.2-.719-1.406-.332-.113-.645-.188-.7-.188a4.744 4.744 0 01-.535.113zm57.448.544c-.295.318-.092.618.572.768l.682.188-.774.131c-.535.094-.793.244-.849.525-.092.338-.036.356.775.244.72-.094.922-.056 1.199.262.737.825 1.733.357 2.047-.937.11-.469.074-.488-1.328-.806a54.446 54.446 0 01-1.826-.413c-.203-.056-.424-.037-.498.038zm2.951 1.462c-.11.319-.94.244-1.014-.094-.037-.225.074-.28.516-.206.314.038.535.169.498.3zm-59.367 3.694c-.46.262-.442 1.218.019 1.481.203.094.442.188.553.188.295 0 .756-.563.756-.938 0-.394-.46-.938-.793-.938-.129 0-.369.094-.535.207zm55.844.15c-.424.487-.313.975.296 1.312.442.262.516.262.866-.056.48-.45.498-.9.056-1.294-.443-.413-.83-.394-1.218.038zm-2.618 3.825c-.074.225.018.506.313.825l.443.468-.461-.13c-.258-.076-.553-.188-.664-.226-.332-.131-.535.338-.24.525.148.094.424.169.627.169.221 0 .72.169 1.107.375 1.125.581 1.401.319.516-.525-.387-.375-.904-.956-1.106-1.256-.35-.488-.406-.525-.535-.225zm-50.017.544c-.129.13-.221.543-.221.937 0 .656-.11.806-.498.656-.092-.019-.148-.206-.148-.412 0-.507-.276-.638-.534-.225-.148.243-.13.45.073.843.59 1.032 1.66.563 1.66-.75 0-.468.093-.712.24-.712.387 0 .516.225.277.506-.148.188-.148.319 0 .469.48.487.793-.431.405-1.181-.22-.394-.922-.469-1.254-.131zm48.394 1.837c-.498.75-.48 1.537 0 .843.221-.3.295-.28 1.143.357.94.694 1.236.806 1.42.506.056-.094-.35-.506-.903-.9-.849-.581-.996-.787-.904-1.144.147-.656-.221-.487-.756.338zm-47.158-.038c-1.568 1.22-1.715 1.35-1.494 1.575.13.132.35.075.775-.224l.59-.432-.387.769c-.314.638-.332.788-.13.975.203.169.296.131.37-.15.202-.638.995-1.35 1.493-1.35.369 0 .48-.075.424-.337-.073-.338-.129-.338-.977-.132l-.553.132.442-.488c.664-.712.259-.956-.553-.337zm46.236 1.294c-.074.169-.093.319-.074.338.037.018.553.431 1.143.919.793.637 1.125.825 1.236.656.184-.319.184-.338-1.088-1.35-.922-.732-1.125-.825-1.217-.563zm-45.332.919c-.94.806-1.218 1.294-.756 1.294.332 0 2.286-1.781 2.176-1.988-.185-.3-.406-.187-1.42.694zm.737.919l-1.05 1.031.423.506c.259.3.498.432.646.357.166-.113.166-.225-.055-.47-.277-.3-.222-.393.627-1.124.866-.75 1.07-1.125.627-1.275-.093-.019-.646.412-1.218.975zm43.451-.451c-.129.225 1.678 2.025 2.047 2.025.24 0 .904-.918.756-1.05-.055-.056-.22 0-.387.132-.221.187-.387.15-.94-.3-1.273-1.032-1.31-1.05-1.476-.807zm-.682.676c-.056.093.35.656.903 1.275.775.881 1.033 1.069 1.218.881.184-.188.018-.45-.775-1.256-.996-1.031-1.199-1.163-1.346-.9zm-41.496 1.143l-1.051 1.088.535.525c.534.525 1.014.375.571-.169-.258-.319-.166-.469.812-1.556.369-.394.498-.656.369-.788-.111-.112-.535.188-1.236.9zm40.26-.018l-.553.525.977 1.162.96 1.162.627-.637c.627-.619.627-.638.313-1.106-.166-.263-.424-.488-.572-.488-.147 0-.276-.112-.276-.243 0-.263-.572-.882-.793-.882-.074 0-.37.225-.683.507zm.922.618c0 .207-.073.375-.166.375-.24 0-.59-.487-.442-.618.24-.263.608-.113.608.243zm.83.75c.074.113.074.338.019.507-.093.224-.166.243-.388.056-.147-.132-.276-.356-.276-.488 0-.3.48-.356.645-.075zm-3.467.057c-.24.187-.184.393.35 1.593.388.825.72 1.35.867 1.294.13-.037.203-.15.185-.244-.019-.093-.056-.3-.093-.45-.036-.206.111-.28.535-.28.314 0 .627-.057.701-.113.055-.075-.424-.544-1.088-1.07-.96-.768-1.236-.918-1.457-.73zm1.051 1.05c.185.206.24.412.148.468-.11.057-.314-.093-.48-.356-.35-.544-.129-.619.332-.112zm-36.092.525l-.867 1.237.59.431c.646.488 1.162.394.554-.112-.332-.281-.35-.375-.148-.656.184-.263.314-.282.627-.113.461.244.701-.019.314-.356-.314-.263-.332-.375-.092-.75.129-.225.22-.225.516.075.258.225.406.262.498.112.129-.206-.185-.525-.83-.918-.221-.132-.48.112-1.162 1.05zm-1.863-.9c-.055.094.019.262.166.394.222.187.277.187.277-.057 0-.356-.295-.581-.443-.337zm35.613.318c-.055.076.148.507.461.994l.572.863-.738-.731c-.572-.544-.848-.675-1.143-.582-.222.056-.388.206-.388.3s.37.75.83 1.425c.609.938.849 1.163.922.938.074-.169-.11-.657-.48-1.2l-.59-.9.812.787c.867.844 1.015.9 1.439.638.221-.15.11-.413-.517-1.407-.774-1.2-.94-1.368-1.18-1.124zm-31.592 1.2c-.092.62-.258.863-.738 1.182-.35.225-.627.468-.627.543 0 .3.424.357.72.075.479-.45.626-.375.516.244-.074.375-.037.581.129.638.276.112.48-.375.48-1.125 0-.263.24-.582.645-.863.48-.337.59-.487.424-.656-.166-.169-.332-.131-.664.206l-.443.413.074-.638c.092-.956-.369-.975-.516-.019zm29.619.001c-.185.112-.074.43.535 1.48.424.732.848 1.294.958 1.238.277-.187.185-.506-.534-1.725-.517-.843-.775-1.106-.96-.993zm-28.236 1.256c-.664 1.069-.645 1.706.055 2.118.48.263.535.244.923-.13.387-.395.387-.432.055-.544-.203-.094-.369-.057-.424.075-.093.3-.59.28-.59-.02 0-.374.81-1.687 1.088-1.78.184-.057.22.018.166.3-.093.337.147.6.516.6.277 0 0-.975-.332-1.2-.645-.45-.848-.376-1.457.58zm26.779-.525c-.24.15-.222.394.073 1.687.203.882.425 1.5.535 1.463.11-.038.203-.225.203-.431 0-.507.387-.694.812-.413.202.131.424.169.498.094.147-.15-.203-.694-1.162-1.782-.517-.58-.775-.75-.96-.618zm.885 1.687c-.24.075-.277.038-.424-.543l-.13-.47.37.47c.202.262.276.506.184.543zm-25.543-.637c-.148.356-.387.956-.535 1.331-.313.788-.277.881.461 1.2.72.3.96.075.406-.356-.553-.413-.387-1.013.24-.844.535.131.774-.225.276-.394-.608-.187-.387-.769.258-.694.683.075.554-.3-.22-.637-.61-.244-.61-.244-.886.394zm22.998-.263c-.775.356-.885.638-.24.638.184 0 .443.375.7 1.03.24.62.536 1.05.72 1.107.369.075.35-.094-.24-1.612-.332-.807-.35-.975-.129-1.07.277-.093.388-.506.148-.468-.092 0-.517.169-.96.375zm-21.375 1.632c-.221.712-.406 1.368-.406 1.48 0 .095.295.263.646.376.498.169.645.15.645-.038 0-.13-.166-.28-.369-.337-.369-.094-.369-.113.074-1.313.387-1.05.406-1.237.166-1.33a3.36 3.36 0 00-.314-.113c-.018 0-.22.58-.442 1.275zm19.125-.732c-.369.3-.406.413-.203.844.13.281.424.525.72.6.885.187.977.243.977.544 0 .3-.664.393-.775.093-.037-.112-.166-.112-.313 0-.222.132-.222.207-.037.45.313.375.737.375 1.272 0 .72-.506.332-1.575-.59-1.575-.516 0-.977-.468-.664-.656.11-.075.332-.019.48.112.387.338.774-.075.442-.487-.313-.375-.793-.356-1.31.075zM34.525 73.05c-.24.787-.406 1.462-.37 1.481.204.15 1.236.413 1.329.338.203-.207.11-.432-.148-.432-.442 0-.48-.28-.184-1.312.276-.938.258-1.5-.074-1.5-.074 0-.332.637-.553 1.425zm16.266-.544c.314 1.725.332 2.119.148 2.119-.277 0-.37-.188-.664-1.332-.166-.675-.35-1.03-.572-1.068-.258-.056-.295.019-.184.544.46 2.137.663 2.4 1.678 2.156.516-.132.572-.619.24-2.175-.13-.638-.295-.938-.48-.938-.24 0-.258.132-.166.694zm-14.182-.094c-.185.581-.664 2.625-.609 2.681.037.038.369.113.756.188.738.15.978-.15.295-.375-.535-.188-.369-.731.259-.806.59-.075.663-.32.129-.47a.506.506 0 01-.37-.505c0-.338.075-.394.443-.3.259.056.498.037.572-.057.13-.225-.018-.318-.793-.487-.424-.094-.608-.056-.682.131zm11.121.169c-.203.113-.332.413-.332.75 0 .488.11.619.737.863.775.318.996.806.37.806-.204 0-.37-.094-.37-.188 0-.112-.129-.187-.295-.187-.369 0-.276.544.148.825.203.131.48.131.83 0 .406-.131.516-.3.516-.731 0-.47-.129-.62-.682-.9-.701-.357-.96-.882-.424-.882.147 0 .276.075.276.188 0 .094.13.187.277.187.332 0 .369-.393.055-.712-.276-.281-.682-.281-1.106-.019zm-9.443.3a17.26 17.26 0 00-.203 1.5c-.11 1.013-.092 1.181.166 1.181.203 0 .295-.168.295-.618 0-.319.074-.806.148-1.069.092-.356.147-.225.221.656.074.975.148 1.125.498 1.181.461.075.535-.112.7-1.8.111-.993.093-1.162-.165-1.162-.222 0-.295.188-.295.731 0 .413-.074.806-.185.863-.11.075-.184-.244-.184-.825 0-.882-.037-.957-.443-.957-.276 0-.498.132-.553.32zm2.6.206c-.368.413-.424 2.288-.092 2.625.387.394 1.254.281 1.42-.206.185-.506-.313-.731-.572-.244-.387.713-.682-.431-.405-1.537.129-.47.627-.582.627-.132 0 .15.129.282.276.282.406 0 .332-.694-.073-.938-.517-.281-.849-.225-1.18.15zm1.789.15c.056.17.111.844.111 1.5v1.2h.738c.498 0 .738-.075.738-.262 0-.169-.148-.225-.462-.15-.405.075-.46.019-.46-.413 0-.393.091-.487.46-.487.295 0 .462-.112.462-.281 0-.169-.166-.281-.462-.281-.332 0-.46-.094-.46-.376 0-.28.128-.374.46-.374.259 0 .462-.094.462-.188 0-.112-.388-.188-.849-.188-.7 0-.83.057-.738.3zm2.877 1.576c0 .093.166.187.37.187.202 0 .368-.094.368-.188 0-.112-.166-.187-.369-.187-.203 0-.369.075-.369.188z"/></svg>